<?xml version="1.0" encoding="UTF-8" ?>
<!DOCTYPE svg PUBLIC "-//W3C//DTD SVG 1.1//EN" "http://www.w3.org/Graphics/SVG/1.1/DTD/svg11.dtd">
<svg width="267pt" height="249pt" viewBox="0 0 267 249" version="1.1" xmlns="http://www.w3.org/2000/svg">
<g id="#7b2382ff">
<path fill="#7b2382" opacity="1.00" d=" M 88.70 0.00 L 197.36 0.00 C 213.53 0.82 230.03 5.74 242.24 16.75 C 257.79 30.54 265.22 51.32 267.00 71.60 L 267.00 112.46 C 266.18 128.35 261.42 144.55 250.73 156.66 C 236.39 173.07 214.35 180.90 193.01 181.96 C 165.43 182.04 137.84 181.98 110.25 181.99 C 126.60 150.26 143.21 118.67 159.38 86.84 C 106.20 140.83 53.19 195.00 0.02 249.00 L 0.00 249.00 L 0.00 248.89 C 14.05 221.12 28.51 193.55 42.74 165.87 C 28.73 153.83 20.93 136.00 18.09 118.03 C 16.58 109.42 17.18 100.67 17.06 91.99 C 17.22 79.31 16.26 66.43 19.22 53.98 C 22.25 40.02 29.78 26.94 40.96 17.93 C 54.38 6.91 71.61 1.60 88.70 0.00 Z" />
</g>
</svg>
