<?xml version="1.0" encoding="UTF-8" ?>
<!DOCTYPE svg PUBLIC "-//W3C//DTD SVG 1.1//EN" "http://www.w3.org/Graphics/SVG/1.1/DTD/svg11.dtd">
<svg width="192pt" height="177pt" viewBox="0 0 192 177" version="1.1" xmlns="http://www.w3.org/2000/svg">
<g id="#7b2382ff">
<path fill="#7b2382" opacity="1.00" d=" M 49.37 0.00 L 128.64 0.00 C 143.86 1.49 159.61 7.26 169.34 19.59 C 177.56 29.73 180.10 43.20 179.76 55.96 C 179.44 66.70 180.72 77.62 178.18 88.18 C 175.68 99.47 170.14 110.31 161.30 117.94 C 170.61 135.88 180.09 153.74 189.33 171.72 C 190.00 173.05 190.96 174.21 192.00 175.28 L 192.00 177.00 L 191.92 177.00 C 191.34 176.50 190.18 175.49 189.60 174.99 C 188.93 174.14 188.25 173.30 187.52 172.52 C 150.78 135.69 114.25 98.64 77.44 61.87 C 89.10 84.42 100.99 106.86 112.72 129.37 C 92.83 129.36 72.95 129.42 53.06 129.34 C 37.57 128.55 21.49 122.87 11.22 110.80 C 4.02 102.47 0.78 91.48 0.00 80.67 L 0.00 50.36 C 1.54 34.48 8.20 18.06 21.79 8.81 C 29.84 3.14 39.68 0.74 49.37 0.00 Z" />
</g>
</svg>
