<?xml version="1.0" encoding="UTF-8" ?>
<!DOCTYPE svg PUBLIC "-//W3C//DTD SVG 1.1//EN" "http://www.w3.org/Graphics/SVG/1.1/DTD/svg11.dtd">
<svg width="500pt" height="813pt" viewBox="0 0 500 813" version="1.1" xmlns="http://www.w3.org/2000/svg">
<g id="#7b2382ff">
<path fill="#7b2382" opacity="1.00" d=" M 220.51 5.97 C 220.22 3.40 222.32 0.93 224.99 1.20 C 248.68 1.11 272.38 1.15 296.07 1.18 C 298.81 0.83 301.20 3.23 300.86 5.97 C 300.91 41.40 300.86 76.84 300.88 112.27 C 327.99 116.93 354.46 125.46 378.96 137.99 C 410.03 153.84 437.96 175.96 460.03 203.00 C 461.61 205.06 463.56 206.95 464.56 209.40 C 465.24 211.68 463.54 213.64 461.79 214.83 C 431.03 238.09 400.45 261.59 369.64 284.77 C 366.37 287.25 363.25 283.81 361.84 281.04 C 347.34 259.44 325.20 243.57 300.89 234.72 C 300.90 267.35 300.80 299.97 300.94 332.59 C 341.75 342.23 382.16 355.84 418.00 377.98 C 445.47 395.02 470.03 418.16 484.47 447.43 C 494.15 466.47 498.85 487.67 500.00 508.91 L 500.00 524.83 C 498.81 553.02 493.19 581.55 479.40 606.43 C 465.27 632.64 442.35 653.46 416.02 667.03 C 380.54 685.44 340.44 692.68 300.88 695.27 C 300.83 732.53 300.95 769.78 300.83 807.04 C 301.02 809.68 298.52 811.74 295.96 811.42 C 272.32 811.45 248.66 811.50 225.02 811.40 C 222.04 811.71 220.10 808.75 220.50 806.03 C 220.51 768.72 220.49 731.41 220.51 694.10 C 168.35 689.25 116.25 673.45 73.43 642.60 C 44.12 621.61 19.55 593.87 2.91 561.85 C 1.25 559.44 2.30 556.07 5.01 554.99 C 39.90 535.21 74.78 515.41 109.69 495.65 C 112.28 493.68 115.71 495.23 116.84 498.03 C 129.14 519.48 145.45 539.19 166.69 552.27 C 183.03 562.54 201.59 568.83 220.49 572.31 C 220.52 534.03 220.48 495.75 220.51 457.47 C 198.36 452.06 176.48 445.44 155.37 436.80 C 126.82 425.11 99.32 409.52 77.39 387.54 C 57.55 367.85 43.43 342.41 37.83 314.98 C 30.43 279.08 34.16 240.52 50.36 207.45 C 63.72 179.81 85.81 156.78 112.09 141.09 C 144.74 121.42 182.75 112.38 220.49 109.74 C 220.53 75.15 220.47 40.56 220.51 5.97 M 228.46 9.13 C 228.57 41.42 228.45 73.70 228.52 105.98 C 228.51 108.67 228.39 111.58 226.96 113.94 C 224.77 117.17 220.59 117.76 216.99 118.03 C 185.40 120.42 153.82 127.76 125.65 142.57 C 96.47 157.64 71.52 181.59 57.31 211.38 C 45.95 234.09 41.43 259.78 42.30 285.04 C 42.80 300.02 44.88 315.07 49.88 329.24 C 57.46 351.54 71.18 371.56 88.63 387.29 C 105.83 402.97 126.02 415.04 147.15 424.63 C 171.43 435.71 197.04 443.56 222.87 450.09 C 227.15 451.28 228.60 456.03 228.51 460.01 C 228.47 496.99 228.55 533.97 228.47 570.94 C 228.57 575.67 225.07 580.32 220.05 580.13 C 198.31 576.35 176.91 568.92 158.56 556.46 C 139.20 543.64 123.97 525.52 112.20 505.67 C 111.86 504.66 110.83 503.68 109.81 504.67 C 76.94 523.30 44.13 542.05 11.17 560.53 C 31.24 597.88 62.51 628.84 99.29 649.75 C 134.94 670.10 175.23 681.50 215.94 685.61 C 219.44 686.01 223.46 686.13 226.04 688.90 C 228.56 691.18 228.51 694.90 228.52 698.03 C 228.40 733.22 228.67 768.40 228.39 803.58 C 249.88 803.29 271.39 803.49 292.88 803.48 C 292.85 768.32 292.90 733.17 292.85 698.01 C 292.83 695.04 293.26 691.69 295.64 689.62 C 298.78 686.87 303.24 687.19 307.12 686.83 C 328.13 685.13 349.14 682.24 369.48 676.61 C 398.36 668.58 426.66 655.51 448.20 634.24 C 474.19 609.64 488.26 574.34 490.88 539.04 C 490.95 525.00 491.00 510.95 490.85 496.92 C 488.27 469.75 476.45 443.82 458.95 423.01 C 454.15 417.83 449.80 412.18 444.22 407.77 C 431.39 395.82 416.77 385.91 401.43 377.47 C 369.40 359.98 334.41 348.63 299.04 340.09 C 294.95 339.19 292.64 334.95 292.88 330.96 C 292.85 299.64 292.89 268.30 292.86 236.97 C 292.91 234.26 293.21 231.24 295.20 229.19 C 297.79 226.80 301.75 226.45 304.93 227.82 C 330.11 237.13 352.88 253.71 368.10 275.98 C 397.24 254.04 426.11 231.76 455.27 209.85 C 441.16 192.35 424.62 176.77 406.30 163.75 C 376.11 142.46 341.27 127.81 304.96 121.02 C 301.63 120.28 297.82 120.23 295.17 117.80 C 293.19 115.73 292.91 112.70 292.86 109.98 C 292.92 76.36 292.81 42.73 292.92 9.11 C 271.43 9.21 249.95 9.16 228.46 9.13 Z" />
<path fill="#7b2382" opacity="1.00" d=" M 211.46 220.69 C 215.89 219.72 220.90 218.27 225.01 221.05 C 227.98 222.97 228.52 226.74 228.52 230.00 C 228.45 257.31 228.57 284.63 228.46 311.94 C 228.93 318.38 221.43 322.37 215.95 319.89 C 201.18 315.25 185.47 309.94 174.94 297.95 C 168.11 290.40 165.92 279.89 165.53 270.01 C 165.14 258.16 168.43 245.58 177.01 237.01 C 186.14 227.70 198.95 223.27 211.46 220.69 M 181.26 244.23 C 172.95 253.68 172.42 267.30 174.48 279.12 C 175.81 287.13 180.86 294.11 187.43 298.71 C 197.33 305.71 208.98 309.60 220.49 313.05 C 220.51 284.40 220.50 255.75 220.50 227.10 C 206.35 229.18 191.06 233.04 181.26 244.23 Z" />
<path fill="#7b2382" opacity="1.00" d=" M 299.22 468.24 C 302.20 467.48 305.08 469.06 307.90 469.84 C 324.42 475.36 341.27 482.60 353.04 495.92 C 362.58 506.37 366.20 521.09 365.38 534.96 C 364.62 542.18 362.90 549.56 358.73 555.63 C 351.39 567.04 338.50 573.27 325.95 577.18 C 318.06 579.45 310.03 581.34 301.89 582.43 C 298.73 582.32 295.08 580.89 293.79 577.77 C 292.63 575.01 292.89 571.94 292.86 569.02 C 292.91 538.34 292.82 507.66 292.90 476.99 C 292.77 473.08 294.96 468.73 299.22 468.24 M 300.89 475.91 C 300.87 508.81 300.88 541.72 300.88 574.62 C 317.34 572.00 334.99 568.35 347.62 556.66 C 356.85 548.21 358.76 534.74 356.95 522.91 C 355.72 512.17 349.73 502.40 341.45 495.61 C 329.73 485.92 315.27 480.34 300.89 475.91 Z" />
</g>
<g id="#ffffffff">
<path fill="#ffffff" opacity="1.00" d=" M 228.46 9.13 C 249.95 9.16 271.43 9.21 292.92 9.11 C 292.81 42.73 292.92 76.36 292.86 109.98 C 292.91 112.70 293.19 115.73 295.17 117.80 C 297.82 120.23 301.63 120.28 304.96 121.02 C 341.27 127.81 376.11 142.46 406.30 163.75 C 424.62 176.77 441.16 192.35 455.27 209.85 C 426.11 231.76 397.24 254.04 368.10 275.98 C 352.88 253.71 330.11 237.13 304.93 227.82 C 301.75 226.45 297.79 226.80 295.20 229.19 C 293.21 231.24 292.91 234.26 292.86 236.97 C 292.89 268.30 292.85 299.64 292.88 330.96 C 292.64 334.95 294.95 339.19 299.04 340.09 C 334.41 348.63 369.40 359.98 401.43 377.47 C 416.77 385.91 431.39 395.82 444.22 407.77 C 449.80 412.18 454.15 417.83 458.95 423.01 C 476.45 443.82 488.27 469.75 490.85 496.92 C 491.00 510.95 490.95 525.00 490.88 539.04 C 488.26 574.34 474.19 609.64 448.20 634.24 C 426.66 655.51 398.36 668.58 369.48 676.61 C 349.14 682.24 328.13 685.13 307.12 686.83 C 303.24 687.19 298.78 686.87 295.64 689.62 C 293.26 691.69 292.83 695.04 292.85 698.01 C 292.90 733.17 292.85 768.32 292.88 803.48 C 271.39 803.49 249.88 803.29 228.39 803.58 C 228.67 768.40 228.40 733.22 228.52 698.03 C 228.51 694.90 228.56 691.18 226.04 688.90 C 223.46 686.13 219.44 686.01 215.94 685.61 C 175.23 681.50 134.94 670.10 99.29 649.75 C 62.51 628.84 31.24 597.88 11.17 560.53 C 44.13 542.05 76.94 523.30 109.81 504.67 C 110.83 503.68 111.86 504.66 112.20 505.67 C 123.97 525.52 139.20 543.64 158.56 556.46 C 176.91 568.92 198.31 576.35 220.05 580.13 C 225.07 580.32 228.57 575.67 228.47 570.94 C 228.55 533.97 228.47 496.99 228.51 460.01 C 228.60 456.03 227.15 451.28 222.87 450.09 C 197.04 443.56 171.43 435.71 147.15 424.63 C 126.02 415.04 105.83 402.97 88.63 387.29 C 71.18 371.56 57.46 351.54 49.88 329.24 C 44.88 315.07 42.80 300.02 42.30 285.04 C 41.43 259.78 45.95 234.09 57.31 211.38 C 71.52 181.59 96.47 157.64 125.65 142.57 C 153.82 127.76 185.40 120.42 216.99 118.03 C 220.59 117.76 224.77 117.17 226.96 113.94 C 228.39 111.58 228.51 108.67 228.52 105.98 C 228.45 73.70 228.57 41.42 228.46 9.13 M 211.46 220.69 C 198.95 223.27 186.14 227.70 177.01 237.01 C 168.43 245.58 165.14 258.16 165.53 270.01 C 165.92 279.89 168.11 290.40 174.94 297.95 C 185.47 309.94 201.18 315.25 215.95 319.89 C 221.43 322.37 228.93 318.38 228.46 311.94 C 228.57 284.63 228.45 257.31 228.52 230.00 C 228.52 226.74 227.98 222.97 225.01 221.05 C 220.90 218.27 215.89 219.72 211.46 220.69 M 299.22 468.24 C 294.96 468.73 292.77 473.08 292.90 476.99 C 292.82 507.66 292.91 538.34 292.86 569.02 C 292.89 571.94 292.63 575.01 293.79 577.77 C 295.08 580.89 298.73 582.32 301.89 582.43 C 310.03 581.34 318.06 579.45 325.95 577.18 C 338.50 573.27 351.39 567.04 358.73 555.63 C 362.90 549.56 364.62 542.18 365.38 534.96 C 366.20 521.09 362.58 506.37 353.04 495.92 C 341.27 482.60 324.42 475.36 307.90 469.84 C 305.08 469.06 302.20 467.48 299.22 468.24 Z" />
</g>
</svg>
