<?xml version="1.0" encoding="utf-8"?>
<!-- Generator: Adobe Illustrator 19.2.1, SVG Export Plug-In . SVG Version: 6.00 Build 0)  -->
<svg version="1.1" id="Layer_1" xmlns="http://www.w3.org/2000/svg" xmlns:xlink="http://www.w3.org/1999/xlink" x="0px" y="0px"
	 viewBox="0 0 171 284" style="enable-background:new 0 0 171 284;" xml:space="preserve">
<style type="text/css">
	.st0{fill:#7B2382;}
</style>
<g>
	<path class="st0" d="M7.1,43.7c3.1-0.8,6.3-0.4,9.4-0.5c48.7,0.1,97.4,0,146.1,0c6-0.2,8.4,6.7,8.9,11.6v3.6
		c-0.6,4.9-2.8,11.8-8.8,11.8c-50.4,0.1-100.8,0-151.2,0.1c-2.3,0-4.8-0.1-6.4-1.9C1.4,64.7,0.4,59.1,1,54C1.6,50,3.2,45.5,7.1,43.7
		z"/>
	<path class="st0" d="M6.9,86.5c3.4-0.9,7.1-0.4,10.6-0.5c45.7,0,91.3,0,137,0c3.6,0.1,7.2-0.3,10.7,0.4c4.4,1.7,5.6,6.9,6.3,11.1
		v3.8c-0.6,4.9-2.8,11.8-8.8,11.8c-50.4,0.1-100.9,0-151.3,0.1c-2.1-0.1-4.6,0-6.2-1.8C1.4,107.7,0.4,102,1,97
		C1.5,93,3.1,88.5,6.9,86.5z"/>
	<path class="st0" d="M4.1,131.6c1.6-2.4,4.6-3.1,7.3-2.9c47.3,0.1,94.7,0,142,0c3.9,0.1,7.9-0.4,11.8,0.4c4.3,1.8,5.6,7,6.2,11.2
		v3.8c-0.6,4.9-2.9,11.8-8.9,11.7c-49.3,0.1-98.7,0-148.1,0.1c-3.5-0.1-7.9,0.6-10.2-2.7C-0.3,147.1-0.4,137.8,4.1,131.6z"/>
	<path class="st0" d="M3.2,175.7c1.4-2.6,4.1-4.5,7.2-4.2c50.8,0,101.5,0,152.3,0c6-0.2,8.4,6.7,8.9,11.6v3.6
		c-0.4,5.4-3.4,12.6-9.9,11.9c-50.4,0-100.8,0-151.2,0c-2.8,0.2-5.4-1.2-6.8-3.6C0,189.2-0.1,181.5,3.2,175.7z"/>
	<path class="st0" d="M4.3,216.8c1.4-1.9,3.8-2.8,6.1-2.7c50.7,0,101.5,0,152.3,0c6-0.2,8.4,6.7,8.9,11.6v3.5
		c-0.6,4.9-2.9,11.9-8.9,11.9c-47.7,0.1-95.4,0-143.1,0c-3.7,0-7.4,0.2-11.1-0.2c-3.1-0.4-5-3.2-6.1-5.8
		C-0.1,229.4,0.3,222,4.3,216.8z"/>
	<path class="st0" d="M1.1,267c0.7-4.7,3.7-10.6,9.3-10.1c48.3,0,96.7,0,145.1,0c3.5,0.1,7.1-0.5,10.4,0.7c3.8,2.2,4.9,6.8,5.6,10.8
		v3.7c-0.5,4.7-2.3,9.8-7,11.8H8C1.6,281.3,0.1,273.2,1.1,267z"/>
	<path class="st0" d="M7.1,0.9c3.1-0.8,6.3-0.4,9.4-0.5c48.7,0.1,97.4,0,146.1,0c6-0.2,8.4,6.7,8.9,11.6v3.6
		c-0.6,4.9-2.8,11.8-8.8,11.8c-50.4,0.1-100.8,0-151.2,0.1c-2.3,0-4.8-0.1-6.4-1.9C1.4,22,0.4,16.3,1,11.3C1.6,7.3,3.2,2.8,7.1,0.9z
		"/>
</g>
</svg>
