<?xml version="1.0" encoding="UTF-8" ?>
<!DOCTYPE svg PUBLIC "-//W3C//DTD SVG 1.1//EN" "http://www.w3.org/Graphics/SVG/1.1/DTD/svg11.dtd">
<svg width="171pt" height="369pt" viewBox="0 0 171 369" version="1.1" xmlns="http://www.w3.org/2000/svg">
<g id="#7b2382ff">
<path fill="#7b2382" opacity="1.00" d=" M 7.02 0.00 L 163.52 0.00 C 167.43 1.25 169.52 5.18 170.22 8.99 C 171.29 14.39 170.57 20.61 166.83 24.87 C 164.44 27.79 160.32 26.96 157.00 27.09 C 110.33 27.02 63.66 27.08 16.99 27.06 C 13.44 26.98 9.82 27.45 6.33 26.65 C 2.10 24.70 0.69 19.71 0.00 15.50 L 0.00 11.86 C 0.53 7.18 2.33 1.98 7.02 0.00 Z" />
<path fill="#7b2382" opacity="1.00" d=" M 6.30 43.14 C 9.45 42.34 12.76 42.74 15.98 42.68 C 61.67 42.70 107.36 42.68 153.05 42.69 C 156.67 42.74 160.33 42.39 163.93 42.98 C 167.46 44.00 169.25 47.75 170.07 51.05 C 171.36 56.68 170.73 63.32 166.70 67.73 C 165.33 69.36 163.19 69.87 161.15 69.82 C 110.41 69.79 59.66 69.85 8.92 69.79 C 2.96 69.84 0.63 63.02 0.00 58.14 L 0.00 54.64 C 0.58 50.30 2.00 45.19 6.30 43.14 Z" />
<path fill="#7b2382" opacity="1.00" d=" M 0.00 97.37 C 0.45 92.04 3.42 84.75 9.92 85.42 C 60.63 85.49 111.35 85.36 162.05 85.48 C 165.92 85.33 168.54 88.86 169.60 92.19 C 171.47 98.05 171.08 105.14 167.08 110.07 C 165.68 111.93 163.36 112.68 161.10 112.57 C 110.37 112.54 59.64 112.59 8.92 112.55 C 2.98 112.59 0.64 105.78 0.00 100.92 L 0.00 97.37 Z" />
<path fill="#7b2382" opacity="1.00" d=" M 0.00 140.50 C 0.41 135.39 2.77 128.23 8.95 128.21 C 59.65 128.15 110.36 128.21 161.06 128.18 C 163.40 128.09 165.87 128.77 167.31 130.74 C 170.83 135.23 171.31 141.52 170.02 146.91 C 169.14 150.21 167.33 153.85 163.89 155.02 C 160.63 155.59 157.31 155.27 154.02 155.32 C 108.02 155.31 62.02 155.30 16.02 155.32 C 12.78 155.25 9.45 155.67 6.27 154.86 C 2.07 152.86 0.67 147.89 0.00 143.66 L 0.00 140.50 Z" />
<path fill="#7b2382" opacity="1.00" d=" M 6.34 171.36 C 9.51 170.60 12.81 170.99 16.04 170.93 C 64.39 170.95 112.73 170.94 161.08 170.93 C 163.20 170.90 165.47 171.33 166.91 173.04 C 170.68 177.28 171.26 183.56 170.19 188.93 C 169.38 192.48 167.56 196.53 163.85 197.77 C 160.26 198.36 156.60 198.00 152.98 198.06 C 107.32 198.07 61.65 198.05 15.99 198.07 C 12.79 198.02 9.52 198.38 6.38 197.65 C 2.11 195.74 0.70 190.71 0.00 186.49 L 0.00 182.82 C 0.61 178.50 2.01 173.36 6.34 171.36 Z" />
<path fill="#7b2382" opacity="1.00" d=" M 0.00 225.58 C 0.56 220.64 2.88 213.69 8.92 213.71 C 59.64 213.65 110.37 213.72 161.09 213.68 C 164.36 213.33 167.32 215.35 168.67 218.25 C 171.58 224.26 171.47 232.01 167.65 237.61 C 166.23 239.80 163.71 241.01 161.11 240.82 C 110.38 240.79 59.65 240.85 8.92 240.79 C 2.79 240.76 0.45 233.68 0.00 228.61 L 0.00 225.58 Z" />
<path fill="#7b2382" opacity="1.00" d=" M 0.00 268.33 C 0.54 263.36 2.93 256.37 8.99 256.45 C 59.68 256.41 110.37 256.46 161.06 256.42 C 163.08 256.41 165.28 256.73 166.70 258.33 C 170.16 261.87 170.94 267.23 170.58 271.98 C 170.11 276.26 168.47 281.23 164.26 283.15 C 161.22 283.89 158.05 283.51 154.95 283.58 C 106.27 283.53 57.58 283.61 8.90 283.54 C 2.92 283.53 0.58 276.65 0.00 271.73 L 0.00 268.33 Z" />
<path fill="#7b2382" opacity="1.00" d=" M 0.00 311.09 C 0.55 306.15 2.87 299.21 8.88 299.21 C 59.93 299.18 111.00 299.15 162.06 299.22 C 166.78 299.09 169.40 303.99 170.18 308.03 C 171.37 313.82 170.56 320.81 165.91 324.93 C 163.10 327.08 159.28 326.11 156.00 326.34 C 109.65 326.28 63.30 326.32 16.96 326.32 C 13.40 326.22 9.76 326.71 6.28 325.85 C 2.07 323.84 0.66 318.86 0.00 314.62 L 0.00 311.09 Z" />
<path fill="#7b2382" opacity="1.00" d=" M 0.00 353.80 C 0.56 348.90 2.85 341.97 8.83 341.97 C 59.22 341.87 109.62 342.01 160.02 341.90 C 162.21 341.96 164.74 341.86 166.42 343.55 C 169.77 346.68 170.70 351.55 170.67 355.96 C 170.55 361.01 168.66 366.75 163.71 369.00 L 7.10 369.00 C 2.42 367.14 0.64 362.01 0.00 357.43 L 0.00 353.80 Z" />
</g>
</svg>
