<?xml version="1.0" encoding="UTF-8" ?>
<!DOCTYPE svg PUBLIC "-//W3C//DTD SVG 1.1//EN" "http://www.w3.org/Graphics/SVG/1.1/DTD/svg11.dtd">
<svg width="171pt" height="199pt" viewBox="0 0 171 199" version="1.1" xmlns="http://www.w3.org/2000/svg">
<g id="#7b2382ff">
<path fill="#7b2382" opacity="1.00" d=" M 2.39 5.36 C 3.71 3.00 6.04 0.73 8.95 0.94 C 60.32 0.96 111.69 0.88 163.05 0.98 C 169.15 2.00 170.60 9.27 171.00 14.44 L 171.00 14.44 C 170.58 19.64 169.02 26.73 163.07 28.01 C 111.69 28.13 60.31 28.03 8.93 28.06 C 5.75 28.26 3.34 25.61 2.05 23.00 C -0.57 17.51 -0.50 10.74 2.39 5.36 Z" />
<path fill="#7b2382" opacity="1.00" d=" M 6.14 44.26 C 7.61 43.44 9.34 43.75 10.94 43.69 C 61.30 43.69 111.65 43.69 162.00 43.69 C 165.30 43.40 167.89 46.06 169.14 48.84 C 171.48 54.21 171.46 60.65 168.86 65.93 C 167.57 68.46 165.20 70.96 162.13 70.81 C 111.07 70.82 60.00 70.82 8.94 70.81 C 3.79 70.83 1.21 65.16 0.47 60.80 C -0.45 54.96 0.70 47.58 6.14 44.26 Z" />
<path fill="#7b2382" opacity="1.00" d=" M 7.36 86.57 C 58.92 86.26 110.52 86.53 162.10 86.44 C 165.39 86.20 167.96 88.90 169.19 91.70 C 171.48 97.08 171.46 103.53 168.80 108.79 C 167.49 111.31 165.08 113.76 162.02 113.56 C 111.02 113.57 60.01 113.57 9.01 113.56 C 5.90 113.77 3.47 111.28 2.17 108.72 C -0.44 103.52 -0.49 97.14 1.87 91.85 C 2.99 89.54 4.75 87.21 7.36 86.57 Z" />
<path fill="#7b2382" opacity="1.00" d=" M 7.22 129.35 C 8.81 129.04 10.43 129.24 12.04 129.18 C 62.05 129.18 112.07 129.19 162.08 129.18 C 165.48 128.94 168.10 131.79 169.30 134.69 C 171.49 140.06 171.42 146.45 168.74 151.64 C 167.42 154.13 165.02 156.53 161.99 156.31 C 111.00 156.31 60.00 156.32 9.01 156.31 C 3.29 156.27 0.79 149.73 0.28 144.93 C -0.24 139.22 1.25 131.65 7.22 129.35 Z" />
<path fill="#7b2382" opacity="1.00" d=" M 2.38 176.37 C 3.70 174.00 6.03 171.69 8.96 171.94 C 60.33 171.96 111.70 171.89 163.06 171.97 C 168.21 172.70 170.26 178.60 170.72 183.10 C 171.29 188.96 169.75 196.50 163.72 199.00 L 7.37 199.00 C 4.47 198.05 2.52 195.44 1.48 192.69 C -0.52 187.46 -0.29 181.32 2.38 176.37 Z" />
</g>
</svg>
