<?xml version="1.0" encoding="UTF-8" ?>
<!DOCTYPE svg PUBLIC "-//W3C//DTD SVG 1.1//EN" "http://www.w3.org/Graphics/SVG/1.1/DTD/svg11.dtd">
<svg width="500pt" height="813pt" viewBox="0 0 500 813" version="1.1" xmlns="http://www.w3.org/2000/svg">
<g id="#7b2382ff">
<path fill="#7b2382" opacity="1.00" d=" M 220.51 5.96 C 220.22 3.43 222.28 0.97 224.91 1.20 C 248.61 1.11 272.31 1.16 296.02 1.17 C 298.74 0.81 301.20 3.18 300.86 5.92 C 300.91 41.37 300.86 76.82 300.88 112.27 C 364.21 122.80 424.11 156.41 463.52 207.44 C 465.47 209.50 464.80 212.94 462.41 214.33 C 431.71 237.66 401.03 261.02 370.32 284.33 C 368.72 285.77 366.07 286.12 364.43 284.56 C 362.53 282.40 361.19 279.82 359.44 277.55 C 344.85 257.76 323.92 243.07 300.89 234.73 C 300.91 267.35 300.78 299.98 300.96 332.60 C 342.22 342.34 383.10 356.15 419.23 378.75 C 446.42 395.83 470.64 418.98 484.82 448.13 C 494.26 466.95 498.82 487.85 500.00 508.78 L 500.00 525.06 C 498.78 552.91 493.27 581.08 479.78 605.73 C 465.67 632.25 442.59 653.34 416.03 667.02 C 380.55 685.44 340.44 692.68 300.88 695.27 C 300.84 732.54 300.94 769.81 300.84 807.08 C 301.00 809.68 298.52 811.76 295.98 811.42 C 272.32 811.45 248.65 811.49 224.98 811.41 C 222.53 811.62 220.35 809.44 220.53 807.00 C 220.46 769.37 220.51 731.73 220.51 694.10 C 169.27 689.32 118.11 674.03 75.71 644.22 C 45.40 623.05 20.00 594.71 2.91 561.87 C 1.27 559.50 2.25 556.09 4.95 555.02 C 39.84 535.24 74.73 515.45 109.63 495.67 C 112.22 493.67 115.71 495.19 116.84 498.02 C 129.14 519.49 145.47 539.20 166.71 552.29 C 183.04 562.54 201.59 568.84 220.49 572.31 C 220.53 534.04 220.46 495.77 220.52 457.50 C 199.36 452.27 178.41 446.04 158.16 437.93 C 129.04 426.29 100.94 410.74 78.45 388.60 C 58.35 369.01 43.88 343.59 38.07 316.07 C 30.28 279.58 34.06 240.25 50.74 206.69 C 64.23 179.16 86.40 156.29 112.70 140.72 C 145.21 121.31 182.98 112.36 220.48 109.74 C 220.53 75.15 220.47 40.55 220.51 5.96 M 181.25 244.23 C 172.94 253.69 172.42 267.31 174.48 279.13 C 175.80 287.12 180.84 294.08 187.39 298.68 C 197.30 305.69 208.96 309.60 220.49 313.05 C 220.51 284.40 220.49 255.75 220.50 227.11 C 206.35 229.17 191.06 233.05 181.25 244.23 M 300.89 475.91 C 300.87 508.81 300.88 541.72 300.88 574.62 C 312.11 572.97 323.36 570.54 333.75 565.82 C 341.13 562.45 348.16 557.60 352.54 550.61 C 357.92 542.12 358.23 531.50 356.79 521.84 C 355.38 511.75 349.71 502.61 342.00 496.08 C 330.20 486.10 315.49 480.41 300.89 475.91 Z" />
</g>
</svg>
