<?xml version="1.0" encoding="UTF-8" ?>
<!DOCTYPE svg PUBLIC "-//W3C//DTD SVG 1.1//EN" "http://www.w3.org/Graphics/SVG/1.1/DTD/svg11.dtd">
<svg width="700pt" height="699pt" viewBox="0 0 700 699" version="1.1" xmlns="http://www.w3.org/2000/svg">
<g id="#7a2381fc">
<path fill="#7a2381" opacity="1.00" d=" M 341.50 0.00 L 363.55 0.00 C 392.59 1.62 421.56 5.93 449.45 14.34 C 519.42 34.94 582.40 78.20 626.94 135.95 C 668.17 188.93 693.59 254.05 698.87 321.00 C 699.39 327.22 699.62 333.46 700.00 339.69 L 700.00 359.18 C 698.70 398.06 691.32 436.79 677.41 473.15 C 654.32 534.17 613.63 588.30 561.67 627.71 C 509.13 667.83 444.99 692.54 379.08 697.83 C 372.81 698.37 366.51 698.58 360.23 699.00 L 341.57 699.00 C 303.60 697.96 265.75 691.00 230.10 677.84 C 198.81 666.35 169.22 650.29 142.42 630.48 C 140.90 629.61 140.10 627.77 141.14 626.19 C 178.13 554.20 215.83 482.55 252.52 410.40 C 254.36 406.72 256.12 403.01 257.79 399.25 C 202.17 458.81 146.64 518.45 91.03 578.02 C 89.80 579.89 87.12 580.27 85.83 578.22 C 65.34 554.75 48.07 528.48 34.51 500.43 C 13.12 456.25 1.43 407.51 0.00 358.46 L 0.00 339.91 C 1.10 308.30 6.04 276.79 15.46 246.57 C 33.24 188.80 66.50 135.97 110.63 94.69 C 158.56 49.56 219.53 18.40 284.23 6.17 C 303.12 2.66 322.29 0.41 341.50 0.00 M 330.24 6.07 C 305.68 27.42 283.53 51.50 264.03 77.54 C 320.01 77.46 375.99 77.46 431.97 77.54 C 412.79 51.90 391.00 28.22 366.96 7.07 C 365.70 5.60 363.67 5.84 361.95 5.71 C 351.38 5.36 340.80 5.50 330.24 6.07 M 374.28 6.28 C 398.35 27.43 419.58 51.66 438.82 77.23 C 450.49 77.86 462.31 77.31 474.04 77.49 C 503.00 77.55 531.97 77.38 560.93 77.58 C 549.26 68.89 537.35 60.51 524.77 53.18 C 479.15 26.11 427.16 10.10 374.28 6.28 M 222.88 29.79 C 192.86 41.65 164.73 58.03 139.08 77.58 C 178.02 77.37 216.97 77.58 255.91 77.48 C 257.27 77.70 257.91 76.38 258.65 75.52 C 277.08 50.55 298.05 27.45 321.12 6.69 C 287.48 9.54 254.25 17.29 222.88 29.79 M 132.32 83.09 C 77.95 127.35 37.47 188.47 18.45 256.00 C 71.66 256.00 124.87 256.01 178.07 255.99 C 190.70 193.95 216.52 134.68 253.15 83.06 C 212.87 83.08 172.60 83.03 132.32 83.09 M 260.05 83.06 C 222.79 134.46 196.58 193.82 183.76 255.99 C 293.25 256.00 402.75 256.00 512.24 255.99 C 499.41 193.82 473.20 134.46 435.96 83.06 C 377.32 83.06 318.68 83.07 260.05 83.06 M 442.85 83.06 C 479.48 134.68 505.30 193.95 517.93 255.99 C 572.47 256.01 627.01 256.00 681.55 256.00 C 662.53 188.47 622.05 127.34 567.66 83.08 C 526.06 83.04 484.45 83.08 442.85 83.06 M 16.25 434.45 C 69.98 434.55 123.71 434.46 177.44 434.50 C 166.04 377.59 166.09 318.49 177.00 261.50 C 123.66 261.51 70.31 261.50 16.97 261.51 C 1.95 317.83 1.73 378.00 16.25 434.45 M 183.12 434.48 C 193.07 434.49 203.03 434.52 212.98 434.48 C 214.49 434.69 215.45 433.32 216.44 432.44 C 227.51 420.86 238.72 409.41 249.78 397.83 C 251.58 395.85 254.11 394.84 256.18 393.20 C 258.78 390.98 263.57 392.48 264.19 395.91 C 264.27 398.75 262.94 401.35 261.83 403.89 C 256.98 414.23 251.70 424.37 246.47 434.52 C 335.42 434.46 424.37 434.52 513.32 434.49 C 524.38 377.54 524.37 318.46 513.33 261.51 C 403.11 261.50 292.89 261.50 182.67 261.51 C 171.60 318.46 171.55 377.60 183.12 434.48 M 519.00 261.50 C 529.88 318.48 529.88 377.52 519.00 434.50 C 573.94 434.48 628.89 434.53 683.83 434.47 C 698.27 378.01 698.03 317.83 683.03 261.51 C 628.35 261.50 573.68 261.51 519.00 261.50 M 17.74 440.01 C 31.14 488.73 55.48 534.37 88.39 572.71 C 120.80 537.99 153.14 503.20 185.59 468.53 C 182.70 459.17 180.65 449.58 178.57 440.01 C 124.96 439.99 71.35 440.00 17.74 440.01 M 184.24 440.01 C 185.73 446.93 187.33 453.83 189.12 460.68 C 195.78 453.79 202.44 446.90 209.09 440.01 C 200.80 440.00 192.52 439.99 184.24 440.01 M 206.33 512.33 C 205.44 513.60 206.36 515.05 206.77 516.31 C 220.56 550.51 238.42 583.09 260.08 612.94 C 318.70 612.93 377.33 612.93 435.95 612.94 C 473.21 561.55 499.41 502.18 512.24 440.01 C 422.74 439.98 333.24 440.02 243.74 439.99 C 231.26 464.10 218.80 488.22 206.33 512.33 M 442.85 612.94 C 485.62 612.94 528.39 612.92 571.16 612.96 C 624.65 568.40 664.10 507.21 682.37 440.01 C 627.56 439.99 572.74 440.00 517.93 440.01 C 505.30 502.05 479.48 561.32 442.85 612.94 M 154.20 612.94 C 187.19 612.94 220.18 612.92 253.17 612.95 C 232.77 584.04 215.53 552.86 202.32 520.03 C 186.29 551.00 170.25 581.97 154.20 612.94 M 438.86 618.73 C 418.71 645.61 396.18 670.81 370.82 692.89 C 407.75 690.63 444.33 682.48 478.65 668.59 C 509.60 656.20 538.51 638.99 564.73 618.44 C 535.15 618.60 505.57 618.46 475.99 618.51 C 463.62 618.66 451.19 618.19 438.86 618.73 M 151.27 618.58 C 149.85 621.36 148.41 624.13 146.97 626.91 C 168.33 642.56 191.46 655.80 215.82 666.20 C 250.41 681.03 287.50 689.82 325.01 692.67 C 299.61 670.64 277.12 645.41 257.03 618.48 C 221.78 618.59 186.52 618.39 151.27 618.58 M 264.05 618.46 C 284.56 645.71 307.78 671.08 333.94 692.97 C 343.23 693.62 352.65 693.77 361.93 693.07 C 388.15 671.16 411.43 645.76 431.97 618.46 C 376.00 618.54 320.02 618.54 264.05 618.46 Z" />
</g>
</svg>
