<?xml version="1.0" encoding="UTF-8" ?>
<!DOCTYPE svg PUBLIC "-//W3C//DTD SVG 1.1//EN" "http://www.w3.org/Graphics/SVG/1.1/DTD/svg11.dtd">
<svg width="624pt" height="784pt" viewBox="0 0 624 784" version="1.1" xmlns="http://www.w3.org/2000/svg">
<g id="#691f6fff">
<path fill="#691f6f" opacity="1.00" d=" M 226.56 0.00 L 397.46 0.00 C 413.12 1.31 428.23 8.55 438.86 20.17 C 449.27 31.22 455.20 46.17 455.70 61.31 C 473.20 61.17 490.71 61.28 508.21 61.25 C 500.78 95.23 493.53 129.25 486.13 163.24 C 370.05 163.25 253.96 163.27 137.88 163.23 C 129.23 129.27 120.92 95.22 112.23 61.26 C 130.96 61.22 149.70 61.27 168.43 61.24 C 168.71 45.18 175.59 29.34 187.15 18.19 C 197.54 7.64 211.86 1.27 226.56 0.00 M 305.37 30.60 C 293.27 32.23 282.49 40.88 278.17 52.29 C 274.34 62.14 275.51 73.78 281.33 82.62 C 289.47 95.77 307.07 101.96 321.61 96.51 C 337.83 91.16 348.18 72.47 343.43 55.92 C 339.51 39.46 322.07 27.85 305.37 30.60 Z" />
<path fill="#691f6f" opacity="1.00" d=" M 0.00 59.75 C 24.13 59.70 48.25 59.85 72.38 59.68 C 72.66 144.45 72.42 229.24 72.50 314.02 C 72.51 446.68 72.48 579.34 72.51 712.01 C 232.17 712.00 391.83 711.99 551.49 712.01 C 551.54 494.59 551.45 277.17 551.53 59.75 C 575.69 59.76 599.84 59.73 624.00 59.77 L 624.00 784.00 L 0.00 784.00 L 0.00 59.75 Z" />
<path fill="#691f6f" opacity="1.00" d=" M 300.65 202.81 C 317.51 200.74 335.53 202.09 350.62 210.47 C 361.80 216.59 370.19 227.53 373.02 239.98 C 376.95 256.71 373.63 274.38 367.00 289.98 C 360.20 305.50 349.46 320.03 334.38 328.30 C 323.47 334.36 309.92 335.48 298.32 330.73 C 282.74 324.43 271.17 310.95 263.50 296.37 C 255.26 280.34 250.77 261.80 253.64 243.81 C 255.51 231.68 262.23 220.30 272.37 213.29 C 280.69 207.42 290.62 204.17 300.65 202.81 Z" />
<path fill="#691f6f" opacity="1.00" d=" M 257.95 358.16 C 265.55 355.31 275.07 358.93 278.52 366.35 C 288.47 389.70 298.24 413.14 308.31 436.44 C 310.41 440.85 311.83 445.61 314.38 449.79 C 325.63 421.88 337.80 394.33 349.50 366.60 C 352.69 358.79 362.45 354.97 370.25 357.84 C 377.21 360.42 384.17 363.03 390.89 366.18 C 398.61 369.74 403.66 377.03 407.80 384.16 C 415.25 397.53 419.93 412.21 424.17 426.85 C 428.31 441.75 431.76 456.84 434.83 472.00 C 354.20 472.00 273.57 472.00 192.93 472.00 C 197.79 447.82 202.53 423.44 211.27 400.30 C 215.31 390.13 220.03 379.74 228.21 372.19 C 231.72 368.73 236.43 367.06 240.86 365.14 C 246.55 362.79 252.21 360.36 257.95 358.16 Z" />
<path fill="#691f6f" opacity="1.00" d=" M 165.53 521.69 C 169.56 520.45 173.81 520.76 177.97 520.75 C 268.97 520.76 359.98 520.74 450.98 520.76 C 464.04 520.86 475.52 532.88 474.80 545.96 C 475.07 558.73 463.69 570.23 450.96 570.25 C 357.65 570.24 264.35 570.26 171.04 570.24 C 159.47 569.98 149.10 560.38 147.79 548.91 C 145.84 537.06 153.96 524.75 165.53 521.69 Z" />
<path fill="#691f6f" opacity="1.00" d=" M 165.55 605.69 C 169.58 604.47 173.82 604.76 177.97 604.75 C 266.97 604.75 355.97 604.75 444.97 604.75 C 449.04 604.71 453.19 604.56 457.14 605.78 C 466.88 608.50 474.40 617.81 474.77 627.96 C 476.07 641.02 465.10 653.67 452.00 654.23 C 358.33 654.27 264.66 654.24 170.99 654.25 C 159.41 654.02 149.12 644.36 147.78 632.93 C 145.84 621.05 153.97 608.76 165.55 605.69 Z" />
</g>
</svg>
