<?xml version="1.0" encoding="UTF-8" ?>
<!DOCTYPE svg PUBLIC "-//W3C//DTD SVG 1.1//EN" "http://www.w3.org/Graphics/SVG/1.1/DTD/svg11.dtd">
<svg width="882pt" height="426pt" viewBox="0 0 882 426" version="1.1" xmlns="http://www.w3.org/2000/svg">
<g id="#691f6fff">
<path fill="#691f6f" opacity="1.00" d=" M 426.48 0.00 L 455.16 0.00 C 504.01 1.82 552.45 11.16 598.86 26.43 C 669.34 49.63 735.35 85.29 795.40 128.68 C 818.07 145.07 839.88 162.65 860.72 181.32 C 866.44 186.59 872.22 191.85 877.07 197.96 C 879.48 200.98 881.45 204.46 882.00 208.34 L 882.00 217.67 C 881.54 220.82 880.21 223.78 878.31 226.33 C 873.13 233.40 866.48 239.18 860.06 245.08 C 803.32 295.55 739.71 338.54 670.91 370.82 C 603.13 402.55 529.57 423.48 454.50 426.00 L 426.49 426.00 C 386.09 424.52 345.92 417.93 307.05 406.84 C 247.15 389.89 190.33 363.13 137.36 330.61 C 134.83 329.11 132.13 327.93 129.66 326.34 C 99.00 306.92 69.55 285.57 41.73 262.26 C 30.92 253.07 19.98 243.99 10.02 233.88 C 5.69 229.23 0.88 224.24 0.00 217.64 L 0.00 208.46 C 0.79 203.08 4.21 198.67 7.73 194.74 C 14.27 187.60 21.53 181.18 28.77 174.77 C 82.40 127.99 142.18 88.15 206.38 57.38 C 275.15 24.48 349.99 2.65 426.48 0.00 M 424.56 56.84 C 400.94 59.26 377.89 67.17 357.79 79.81 C 330.70 96.70 308.96 122.04 296.47 151.44 C 284.00 180.36 280.68 213.12 286.96 243.98 C 292.67 272.76 306.81 299.76 327.02 321.01 C 345.09 340.11 368.02 354.62 393.10 362.58 C 434.47 376.06 481.37 370.93 518.88 348.90 C 549.10 331.40 573.23 303.59 586.12 271.12 C 601.01 234.26 601.00 191.66 586.09 154.80 C 571.73 118.67 543.43 88.32 508.35 71.54 C 482.53 58.95 453.13 53.83 424.56 56.84 M 168.00 133.82 C 129.72 157.10 93.24 183.42 59.58 213.00 C 69.04 221.40 78.84 229.41 88.75 237.29 C 148.50 284.20 214.77 323.51 286.45 349.15 C 262.05 321.18 245.00 286.77 238.44 250.18 C 233.39 222.38 234.04 193.56 240.48 166.05 C 248.10 133.11 264.20 102.28 286.51 76.91 C 245.16 91.69 205.56 111.13 168.00 133.82 M 593.84 75.99 C 606.35 90.05 616.97 105.80 625.23 122.71 C 643.86 160.53 650.18 204.18 643.45 245.78 C 637.45 284.01 620.10 320.23 594.55 349.24 C 640.30 332.96 683.92 310.98 725.01 285.15 C 759.21 263.59 791.87 239.50 822.23 212.79 C 814.63 206.04 806.90 199.44 799.02 193.02 C 737.57 143.32 668.61 102.14 593.84 75.99 Z" />
<path fill="#691f6f" opacity="1.00" d=" M 391.76 151.87 C 405.30 140.93 422.60 134.72 440.02 134.73 C 458.69 134.48 477.38 141.28 491.47 153.54 C 504.22 164.42 513.28 179.53 516.88 195.90 C 520.67 212.95 518.66 231.28 511.01 247.01 C 502.48 264.91 486.86 279.32 468.27 286.25 C 453.88 291.72 437.85 292.75 422.86 289.27 C 404.11 285.02 387.14 273.46 376.30 257.59 C 362.23 237.66 358.75 211.05 366.48 187.99 C 391.01 196.10 415.46 204.48 440.00 212.61 C 423.97 192.32 407.80 172.14 391.76 151.87 Z" />
</g>
</svg>
