<?xml version="1.0" encoding="UTF-8" ?>
<!DOCTYPE svg PUBLIC "-//W3C//DTD SVG 1.1//EN" "http://www.w3.org/Graphics/SVG/1.1/DTD/svg11.dtd">
<svg width="405pt" height="520pt" viewBox="0 0 405 520" version="1.1" xmlns="http://www.w3.org/2000/svg">
<g id="#691f6fff">
<path fill="#691f6f" opacity="1.00" d=" M 194.62 0.00 L 210.31 0.00 C 217.96 0.64 225.60 1.57 233.07 3.35 C 263.43 10.35 291.04 28.46 309.65 53.43 C 327.11 76.51 336.75 105.40 336.50 134.35 C 314.94 129.19 294.07 120.16 276.43 106.62 C 260.96 94.82 248.68 78.25 244.25 59.12 C 224.11 85.38 196.56 105.63 165.89 117.92 C 135.10 130.23 101.61 135.94 68.49 134.35 C 68.09 96.59 84.84 59.16 113.05 34.09 C 135.35 13.89 164.61 1.80 194.62 0.00 Z" />
<path fill="#691f6f" opacity="1.00" d=" M 188.32 121.34 C 207.46 111.39 225.12 98.48 240.00 82.84 C 248.35 98.45 260.92 111.59 275.64 121.35 C 293.93 133.56 314.88 141.07 336.02 146.72 C 332.69 181.91 319.00 215.81 298.45 244.44 C 282.10 266.87 260.60 286.60 234.24 296.33 C 213.47 304.13 189.88 303.91 169.25 295.76 C 143.55 285.83 122.58 266.44 106.55 244.43 C 85.94 215.74 72.23 181.74 68.97 146.46 C 109.97 148.26 151.75 140.26 188.32 121.34 Z" />
<path fill="#691f6f" opacity="1.00" d=" M 126.50 284.54 C 146.35 301.13 170.92 313.04 197.05 314.35 C 226.91 316.17 255.93 303.48 278.49 284.56 C 278.51 300.72 278.49 316.88 278.51 333.04 C 278.95 349.93 273.44 366.86 263.38 380.42 C 251.75 396.40 233.69 407.61 214.12 410.61 C 196.95 413.35 178.87 409.91 163.94 400.97 C 141.88 388.11 127.09 363.58 126.50 337.99 C 126.49 320.17 126.50 302.35 126.50 284.54 Z" />
<path fill="#691f6f" opacity="1.00" d=" M 39.49 348.51 C 59.67 330.46 86.21 319.87 113.24 318.76 C 113.24 327.22 113.01 335.72 114.35 344.12 C 117.11 364.61 125.86 384.68 140.80 399.22 C 155.44 413.93 175.64 422.55 196.25 424.09 C 196.25 433.41 196.24 442.73 196.25 452.06 C 196.30 462.84 199.35 473.62 205.23 482.68 C 213.76 496.14 228.21 505.69 243.96 508.20 C 259.32 510.89 275.67 506.56 287.87 496.89 C 299.18 488.17 306.79 475.00 309.17 460.96 C 319.64 459.13 328.65 450.58 330.18 439.94 C 332.48 427.56 323.86 414.54 311.68 411.57 C 301.45 408.67 289.76 413.35 284.19 422.36 C 279.42 429.59 278.85 439.37 282.77 447.10 C 285.60 453.00 290.95 457.27 296.90 459.78 C 295.11 468.66 290.96 477.15 284.42 483.49 C 276.29 491.87 264.65 496.64 252.99 496.54 C 241.08 496.60 229.25 491.55 221.04 482.93 C 213.36 474.98 208.75 464.06 208.74 452.98 C 208.75 443.35 208.75 433.72 208.75 424.09 C 234.59 422.19 259.48 408.61 274.30 387.24 C 288.32 367.52 293.19 342.57 291.55 318.73 C 326.47 320.00 360.34 337.58 381.32 365.54 C 395.24 383.64 403.39 405.91 405.00 428.65 L 405.00 490.58 C 402.76 506.08 389.01 518.43 373.60 520.00 L 32.47 520.00 C 46.99 495.75 61.52 471.50 75.99 447.21 C 54.97 459.79 33.96 472.37 12.99 485.02 C 8.64 487.37 4.74 490.63 0.00 492.19 L 0.00 428.69 C 1.99 398.15 16.41 368.65 39.49 348.51 Z" />
</g>
</svg>
