<?xml version="1.0" encoding="UTF-8" ?>
<!DOCTYPE svg PUBLIC "-//W3C//DTD SVG 1.1//EN" "http://www.w3.org/Graphics/SVG/1.1/DTD/svg11.dtd">
<svg width="882pt" height="624pt" viewBox="0 0 882 624" version="1.1" xmlns="http://www.w3.org/2000/svg">
<g id="#691f6fff">
<path fill="#691f6f" opacity="1.00" d=" M 413.95 2.01 C 424.58 0.72 435.31 1.05 445.99 1.00 C 455.03 0.93 464.08 1.25 473.04 2.45 C 495.07 4.73 516.88 9.31 537.96 16.12 C 577.47 29.08 614.35 49.99 645.64 77.37 C 675.09 103.10 699.74 134.35 717.64 169.15 C 734.22 201.23 745.16 236.24 749.60 272.09 C 751.40 284.30 752.22 296.65 752.00 309.00 C 751.97 319.07 752.24 329.20 750.94 339.21 C 748.72 363.25 743.80 387.05 736.20 409.98 C 723.81 446.92 704.46 481.51 679.34 511.31 C 655.57 539.54 626.81 563.57 594.70 581.78 C 551.63 606.31 502.55 620.13 453.05 621.98 C 439.03 621.88 424.92 622.57 411.00 620.63 C 406.32 620.47 401.75 619.37 397.09 619.03 C 358.94 613.42 321.79 600.87 288.27 581.77 C 256.18 563.56 227.44 539.54 203.68 511.32 C 172.26 474.07 149.82 429.29 138.88 381.80 C 133.69 358.60 130.45 334.84 131.00 311.03 C 130.73 297.97 131.52 284.90 133.41 271.99 C 140.63 213.73 165.10 157.78 202.77 112.77 C 241.20 66.50 293.31 31.69 350.93 14.32 C 371.42 7.99 392.63 4.08 413.95 2.01 M 419.77 31.33 C 384.54 33.85 349.87 43.46 318.15 58.95 C 279.04 78.05 244.59 106.46 218.14 141.00 C 180.18 190.37 159.38 252.72 160.53 314.99 C 160.99 364.96 175.23 414.79 201.34 457.43 C 219.75 487.73 244.02 514.40 272.25 535.82 C 305.70 561.09 344.83 578.89 385.98 587.00 C 421.85 594.26 459.09 594.32 495.02 587.45 C 537.81 579.17 578.58 560.74 613.05 534.06 C 640.27 512.96 663.72 486.95 681.61 457.51 C 704.07 420.82 717.82 378.84 721.42 335.99 C 726.75 278.29 713.34 219.03 683.80 169.15 C 665.16 137.40 640.12 109.48 610.81 87.23 C 578.87 63.05 541.71 45.77 502.57 37.15 C 487.26 33.57 471.59 31.80 455.95 30.64 C 443.90 30.70 431.75 29.90 419.77 31.33 Z" />
<path fill="#691f6f" opacity="1.00" d=" M 355.98 75.06 C 395.83 60.61 439.32 56.74 481.14 63.27 C 523.98 69.98 564.90 88.16 598.69 115.31 C 621.68 134.04 641.78 156.49 656.97 182.01 C 676.94 215.05 689.06 252.82 692.00 291.30 C 695.31 333.06 688.33 375.69 671.07 413.92 C 643.84 475.63 590.53 525.18 527.03 547.95 C 500.12 557.54 471.59 562.87 442.99 562.68 C 400.08 563.32 357.12 552.22 319.62 531.39 C 289.40 514.71 262.90 491.52 241.83 464.23 C 214.74 428.99 197.33 386.40 192.02 342.26 C 187.94 307.42 190.70 271.68 201.04 238.11 C 213.31 197.75 235.94 160.50 266.42 131.31 C 291.68 106.32 322.61 87.18 355.98 75.06 M 438.41 95.66 C 430.45 97.02 424.06 104.88 425.19 113.05 C 424.84 124.51 439.11 132.57 448.93 126.88 C 458.72 122.51 460.97 108.06 453.57 100.58 C 449.78 96.44 443.89 94.68 438.41 95.66 M 340.99 121.79 C 332.67 122.34 325.17 129.55 325.40 138.08 C 324.39 148.70 336.04 157.79 346.12 154.64 C 354.43 152.65 360.24 143.44 358.24 135.10 C 356.57 127.24 348.96 121.48 340.99 121.79 M 536.10 122.97 C 529.30 125.04 524.18 131.83 524.33 138.98 C 524.24 147.08 531.01 154.38 538.94 155.47 C 548.67 156.92 558.64 147.94 557.57 138.01 C 557.57 127.59 545.90 119.60 536.10 122.97 M 378.30 131.34 C 378.30 133.29 379.69 134.98 380.26 136.83 C 386.66 163.09 393.22 189.34 400.31 215.43 L 398.59 216.48 C 399.42 216.64 400.08 216.24 400.61 215.62 C 400.96 221.72 403.79 227.68 409.17 230.88 C 409.83 232.60 410.47 234.33 411.12 236.07 C 417.03 252.32 423.24 268.48 428.95 284.81 C 422.10 288.40 416.36 294.33 413.83 301.72 C 410.52 311.44 412.33 322.99 419.30 330.71 C 423.48 335.71 429.38 338.82 435.56 340.61 C 435.48 345.49 435.47 350.38 435.56 355.26 C 426.46 361.97 425.08 376.23 432.25 384.82 C 434.91 388.19 439.72 390.41 443.90 388.61 C 450.77 386.01 454.18 377.98 453.68 371.01 C 454.01 364.70 450.41 359.12 445.99 354.98 C 445.85 350.12 445.74 345.22 446.19 340.37 C 447.31 340.32 448.44 340.29 449.58 340.25 C 452.73 349.87 457.09 359.15 459.74 368.88 C 454.25 378.22 458.04 391.94 468.08 396.47 C 472.97 398.96 478.93 396.15 481.36 391.54 C 486.85 381.40 480.51 367.07 469.26 364.36 C 466.98 357.85 464.47 351.43 462.18 344.93 C 460.96 341.89 459.95 338.78 458.58 335.81 C 463.52 331.97 467.56 326.88 469.58 320.92 C 471.95 313.23 471.50 304.52 467.43 297.46 C 463.26 289.44 455.05 283.86 446.17 282.45 C 445.62 270.67 445.91 258.86 446.01 247.07 C 450.88 243.60 457.59 238.88 456.10 231.99 C 452.06 208.72 446.51 185.75 441.10 162.77 L 439.99 164.05 C 436.96 177.37 433.77 190.65 430.91 204.01 C 428.93 213.65 426.61 223.24 425.38 233.01 C 424.60 239.71 430.87 243.78 435.56 247.24 C 435.37 255.25 435.66 263.27 435.44 271.28 C 434.58 269.91 433.84 268.47 433.33 266.95 C 428.71 253.92 423.63 241.04 419.17 227.96 C 419.94 223.98 421.25 219.81 418.99 215.99 C 406.79 188.80 393.41 162.15 380.82 135.15 C 380.10 133.91 379.92 131.65 378.30 131.34 M 266.07 194.68 C 258.56 196.32 252.02 203.06 252.32 211.03 C 251.72 220.37 260.70 229.02 270.05 227.76 C 280.38 227.68 288.33 215.86 284.76 206.22 C 282.30 198.54 274.05 193.42 266.07 194.68 M 609.52 195.77 C 602.72 197.59 597.40 203.89 597.17 210.99 C 596.42 219.87 604.16 228.08 612.91 228.60 C 621.65 229.19 630.04 221.80 630.44 213.02 C 631.02 206.35 626.91 199.72 620.93 196.88 C 617.48 194.94 613.29 195.23 609.52 195.77 M 237.52 294.73 C 230.63 296.80 225.03 303.62 225.45 310.99 C 225.08 320.14 233.94 328.20 242.95 327.52 C 252.34 327.04 260.35 317.52 258.49 308.12 C 257.06 298.68 246.75 291.94 237.52 294.73 M 634.89 295.69 C 625.46 298.75 620.52 310.91 625.74 319.51 C 630.41 329.07 645.04 330.90 652.11 323.10 C 658.72 317.03 658.47 305.22 651.62 299.42 C 647.39 294.81 640.63 294.54 634.89 295.69 M 266.55 393.85 C 256.91 394.87 249.33 405.61 252.58 414.95 C 254.42 422.05 261.54 427.54 268.97 426.90 C 277.09 427.20 284.26 420.23 285.14 412.34 C 286.58 402.18 276.72 392.31 266.55 393.85 M 609.94 394.72 C 603.88 396.02 598.84 400.94 597.31 406.93 C 595.24 413.78 598.82 421.53 604.78 425.20 C 611.34 429.51 620.99 427.99 626.00 421.96 C 629.39 417.98 631.26 412.22 629.62 407.10 C 627.72 398.64 618.45 392.57 609.94 394.72 M 338.17 467.08 C 332.48 468.18 327.49 472.35 325.66 477.89 C 321.89 486.51 328.06 497.16 336.86 499.49 C 346.57 502.83 358.14 494.30 357.79 484.02 C 358.75 473.85 348.04 464.74 338.17 467.08 M 536.42 467.64 C 527.78 469.70 521.62 479.50 524.34 488.13 C 526.59 496.84 536.53 502.71 545.19 499.76 C 553.08 497.56 558.69 488.81 556.92 480.76 C 555.18 471.71 545.46 465.04 536.42 467.64 M 424.21 510.02 C 423.95 514.70 426.08 519.32 429.50 522.47 C 435.16 528.08 445.13 528.36 451.23 523.32 C 454.34 521.05 455.81 517.38 457.35 514.00 C 458.99 505.53 453.59 496.28 445.08 494.23 C 435.19 491.07 423.93 499.71 424.21 510.02 Z" />
</g>
</svg>
