<?xml version="1.0" encoding="UTF-8" ?>
<!DOCTYPE svg PUBLIC "-//W3C//DTD SVG 1.1//EN" "http://www.w3.org/Graphics/SVG/1.1/DTD/svg11.dtd">
<svg width="85pt" height="85pt" viewBox="0 0 85 85" version="1.1" xmlns="http://www.w3.org/2000/svg">
<g id="#7b2382ff">
<path fill="#7b2382" opacity="1.00" d=" M 14.72 0.00 L 20.66 0.00 C 23.90 0.81 27.13 2.10 29.56 4.47 C 33.94 8.70 38.15 13.10 42.51 17.35 C 46.68 13.22 50.80 9.03 54.97 4.89 C 57.60 2.25 61.14 0.72 64.76 0.00 L 69.64 0.00 C 77.29 0.86 83.70 7.13 85.00 14.67 L 85.00 20.66 C 84.17 24.13 82.68 27.51 80.09 30.04 C 75.96 34.20 71.79 38.32 67.65 42.48 C 71.90 46.87 76.34 51.08 80.57 55.49 C 82.94 57.93 84.22 61.17 85.00 64.43 L 85.00 70.13 C 83.84 77.78 77.33 84.14 69.63 85.00 L 64.94 85.00 C 57.24 84.16 52.67 77.50 47.46 72.62 C 51.66 65.07 56.09 57.66 60.17 50.06 C 50.03 59.97 40.11 70.10 30.04 80.09 C 27.53 82.67 24.16 84.14 20.72 85.00 L 14.90 85.00 C 7.42 83.91 1.22 77.70 0.00 70.27 L 0.00 64.50 C 1.13 56.90 7.80 52.43 12.65 47.21 C 19.83 51.16 26.84 55.42 34.08 59.27 C 24.42 49.47 14.62 39.80 4.91 30.04 C 2.34 27.53 0.86 24.16 0.00 20.72 L 0.00 14.89 C 1.10 7.42 7.30 1.23 14.72 0.00 Z" />
</g>
</svg>
