<?xml version="1.0" encoding="UTF-8" ?>
<!DOCTYPE svg PUBLIC "-//W3C//DTD SVG 1.1//EN" "http://www.w3.org/Graphics/SVG/1.1/DTD/svg11.dtd">
<svg width="638pt" height="132pt" viewBox="0 0 638 132" version="1.1" xmlns="http://www.w3.org/2000/svg">
<g id="#3b3938ff">
<path fill="#3b3938" opacity="1.00" d=" M 228.16 9.87 C 228.41 4.45 233.84 0.40 239.10 0.95 C 244.08 0.65 248.86 4.91 248.74 9.98 C 248.78 36.99 248.73 64.01 248.76 91.03 C 248.83 93.33 248.02 95.67 246.38 97.30 C 243.67 100.37 239.30 100.66 235.56 101.46 C 224.64 102.94 212.76 103.59 202.70 98.30 C 195.18 94.44 189.93 87.01 187.96 78.88 C 185.77 69.89 185.91 60.27 188.65 51.42 C 191.08 43.57 196.45 36.46 203.94 32.87 C 211.37 29.15 220.03 29.28 228.00 30.84 C 228.11 23.85 227.77 16.85 228.16 9.87 M 213.56 44.55 C 207.92 49.64 207.21 57.85 206.98 64.97 C 207.11 72.05 207.60 79.97 212.53 85.53 C 216.42 89.74 222.63 89.81 227.85 88.66 C 228.19 73.13 227.92 57.58 227.99 42.04 C 223.15 41.09 217.40 40.96 213.56 44.55 Z" />
<path fill="#3b3938" opacity="1.00" d=" M 270.36 1.65 C 276.26 -0.63 284.50 2.17 285.76 8.90 C 287.05 14.78 281.59 19.92 275.99 20.17 C 271.11 20.66 265.51 17.98 264.12 13.01 C 262.50 8.29 265.86 3.17 270.36 1.65 Z" />
<path fill="#3b3938" opacity="1.00" d=" M 7.14 32.14 C 12.58 30.35 18.34 29.75 24.04 29.42 C 33.62 28.88 44.41 29.44 51.96 36.13 C 59.60 30.23 69.70 28.74 79.09 29.45 C 85.80 29.99 92.68 32.70 96.84 38.21 C 99.63 41.83 101.06 46.42 101.01 50.98 C 100.97 65.33 101.05 79.69 100.98 94.04 C 100.83 99.47 95.16 103.16 90.05 102.47 C 85.14 102.25 80.28 98.25 80.50 93.07 C 80.57 78.73 80.23 64.40 80.14 50.07 C 79.34 41.21 65.73 39.82 61.35 46.22 C 61.11 60.14 61.31 74.07 61.26 87.99 C 61.15 91.53 61.90 95.51 59.62 98.56 C 54.94 105.15 42.50 103.16 40.88 94.95 C 40.34 80.66 40.52 66.34 40.51 52.03 C 40.68 48.76 39.16 45.28 36.12 43.80 C 31.57 41.50 26.22 42.17 21.50 43.53 C 21.49 59.67 21.53 75.80 21.48 91.94 C 21.72 96.57 18.73 101.36 13.97 102.18 C 8.54 103.69 0.97 100.34 0.92 94.07 C 0.83 76.39 0.89 58.70 0.89 41.02 C 0.52 37.02 3.45 33.37 7.14 32.14 Z" />
<path fill="#3b3938" opacity="1.00" d=" M 138.80 29.94 C 147.26 28.46 156.60 29.26 163.91 34.09 C 172.32 39.76 175.85 50.33 176.02 60.08 C 176.13 64.67 171.75 67.86 167.55 68.31 C 156.24 69.97 144.92 71.52 133.60 73.12 C 134.50 78.27 136.57 83.96 141.64 86.33 C 149.02 89.87 157.46 87.90 165.08 86.30 C 170.58 85.70 174.18 92.92 171.21 97.29 C 169.43 100.00 165.89 100.28 163.01 101.00 C 151.86 103.15 139.42 103.72 129.29 97.75 C 120.57 92.67 115.55 82.93 114.38 73.12 C 113.29 63.04 113.98 52.22 119.28 43.31 C 123.35 36.21 130.77 31.29 138.80 29.94 M 136.10 46.00 C 132.59 50.85 132.20 57.12 132.23 62.91 C 140.41 61.76 148.57 60.50 156.75 59.33 C 156.82 54.56 156.39 49.39 153.49 45.42 C 149.39 39.81 139.99 40.50 136.10 46.00 Z" />
<path fill="#3b3938" opacity="1.00" d=" M 272.40 29.53 C 277.63 28.13 284.13 31.29 284.89 36.95 C 285.30 55.65 285.32 74.37 285.22 93.08 C 285.20 96.96 282.62 100.73 278.86 101.87 C 273.05 104.12 264.86 100.57 264.52 93.84 C 264.46 75.57 264.53 57.29 264.48 39.02 C 264.16 34.37 268.03 30.40 272.40 29.53 Z" />
<path fill="#3b3938" opacity="1.00" d=" M 473.58 29.79 C 480.90 28.63 488.61 29.42 495.33 32.65 C 503.34 36.23 509.20 43.75 511.54 52.11 C 514.21 61.61 514.11 71.89 511.24 81.32 C 508.69 89.73 502.45 97.12 494.12 100.21 C 484.11 103.88 472.44 103.17 463.16 97.81 C 455.60 93.42 450.56 85.49 448.77 77.03 C 446.77 67.35 447.16 56.98 450.77 47.71 C 454.42 38.18 463.43 31.04 473.58 29.79 M 477.45 43.50 C 472.90 44.64 469.15 47.97 466.81 51.95 C 461.93 60.23 461.87 71.08 466.59 79.44 C 468.87 83.41 472.44 86.86 476.93 88.11 C 481.26 89.40 485.95 88.01 489.56 85.50 C 499.65 76.46 500.78 59.39 492.10 49.02 C 488.66 44.77 482.91 42.17 477.45 43.50 Z" />
<path fill="#3b3938" opacity="1.00" d=" M 408.44 30.60 C 417.42 28.68 426.75 29.51 435.64 31.50 C 437.53 31.98 439.63 32.40 440.94 34.00 C 444.69 37.99 441.53 45.71 435.99 45.77 C 428.07 44.20 419.30 42.01 411.66 45.78 C 405.60 49.14 403.93 56.60 403.52 62.97 C 403.39 68.96 403.49 75.27 406.16 80.77 C 407.97 84.61 411.71 87.31 415.84 88.15 C 422.57 89.71 429.40 87.93 436.02 86.72 C 441.42 86.78 444.54 94.13 441.18 98.21 C 439.31 100.46 436.19 100.74 433.55 101.41 C 422.95 103.45 411.41 104.05 401.38 99.47 C 391.88 95.16 386.33 85.11 384.88 75.11 C 383.49 65.20 384.07 54.62 388.62 45.55 C 392.44 37.83 399.98 32.18 408.44 30.60 Z" />
<path fill="#3b3938" opacity="1.00" d=" M 531.14 32.12 C 541.74 29.28 553.39 28.03 563.87 32.02 C 566.70 33.06 569.26 35.80 568.79 39.01 C 568.78 43.21 563.90 47.39 559.88 45.09 C 554.84 42.20 548.59 41.79 543.19 43.90 C 543.34 59.94 543.19 75.98 543.27 92.01 C 543.38 94.99 542.56 98.21 540.20 100.20 C 536.48 103.42 530.29 103.71 526.54 100.42 C 523.75 97.74 523.73 93.58 523.73 89.98 C 523.81 73.97 523.67 57.95 523.79 41.95 C 523.70 37.48 526.73 33.17 531.14 32.12 Z" />
<path fill="#3b3938" opacity="1.00" d=" M 584.09 31.39 C 596.31 28.98 609.92 27.86 621.35 33.81 C 630.65 38.56 636.05 48.73 636.96 58.87 C 637.27 67.08 637.67 75.66 634.23 83.35 C 630.93 91.71 623.83 98.66 615.05 100.99 C 608.75 102.82 602.09 102.32 595.72 101.15 C 595.68 108.38 595.92 115.63 595.63 122.85 C 594.67 131.01 583.15 133.78 577.70 128.28 C 575.53 126.11 574.93 122.93 574.99 119.98 C 575.05 93.61 574.92 67.24 575.05 40.88 C 574.91 35.83 579.33 31.98 584.09 31.39 M 596.19 43.47 C 595.29 44.72 595.92 46.51 595.73 47.96 C 595.80 61.96 595.70 75.96 595.78 89.97 C 600.73 90.94 606.47 91.00 610.46 87.41 C 615.41 82.74 616.60 75.51 616.76 69.01 C 616.92 61.53 616.70 53.26 611.91 47.09 C 608.23 42.47 601.51 41.88 596.19 43.47 Z" />
</g>
<g id="#7b2382ff">
<path fill="#7b2382" opacity="1.00" d=" M 300.59 39.34 C 303.25 30.97 313.72 26.56 321.60 30.41 C 327.65 33.65 331.65 39.57 336.67 44.10 C 340.83 40.13 344.80 35.95 349.14 32.16 C 355.01 27.51 364.23 28.21 369.44 33.55 C 374.96 38.87 375.33 48.49 370.25 54.22 C 366.66 58.36 362.36 61.80 358.61 65.78 C 362.73 69.86 367.22 73.60 370.92 78.09 C 376.04 84.78 374.23 95.58 366.94 99.96 C 361.36 103.58 353.37 103.21 348.38 98.71 C 345.93 96.40 343.61 93.97 341.09 91.74 C 344.63 85.29 348.44 78.99 352.01 72.56 C 345.73 78.42 339.86 84.72 333.56 90.56 C 328.59 95.13 324.33 101.80 316.95 102.35 C 307.39 103.82 298.18 94.60 299.88 85.03 C 300.58 78.27 306.64 74.34 310.87 69.75 C 316.99 73.09 322.95 76.74 329.18 79.88 C 321.27 71.76 312.96 64.03 305.03 55.92 C 300.39 51.92 298.46 45.13 300.59 39.34 Z" />
</g>
</svg>
