<?xml version="1.0" encoding="UTF-8" ?>
<!DOCTYPE svg PUBLIC "-//W3C//DTD SVG 1.1//EN" "http://www.w3.org/Graphics/SVG/1.1/DTD/svg11.dtd">
<svg width="429pt" height="429pt" viewBox="0 0 429 429" version="1.1" xmlns="http://www.w3.org/2000/svg">
<g id="#7b2382ff">
<path fill="#7b2382" opacity="1.00" d=" M 130.89 18.95 C 169.75 2.49 213.50 -1.96 254.94 5.92 C 288.69 12.28 320.81 26.97 347.74 48.28 C 374.88 69.66 396.76 97.69 410.77 129.28 C 421.90 154.01 427.76 180.90 429.00 207.94 L 429.00 222.07 C 427.63 266.09 412.35 309.57 385.49 344.51 C 362.44 374.80 331.18 398.77 295.92 413.12 C 272.25 422.90 246.81 427.98 221.25 429.00 L 207.94 429.00 C 180.47 427.97 153.14 422.11 127.98 410.96 C 94.57 396.33 65.04 373.00 43.05 343.91 C 22.66 317.04 8.79 285.26 3.09 252.01 C 1.34 242.18 0.59 232.21 0.00 222.25 L 0.00 208.26 C 1.37 174.13 10.64 140.27 27.66 110.60 C 50.76 69.82 87.66 37.07 130.89 18.95 M 108.71 37.74 C 71.25 59.77 40.99 93.85 23.75 133.76 C 6.27 173.81 2.22 219.49 12.10 262.04 C 19.89 296.17 36.82 328.03 60.24 354.00 C 64.98 332.04 74.66 311.19 88.19 293.28 C 105.00 270.98 127.84 253.27 153.63 242.58 C 179.81 231.64 208.95 228.08 237.02 232.07 C 267.31 236.30 296.22 249.66 319.13 269.92 C 344.01 291.75 361.80 321.61 368.76 353.99 C 399.53 320.07 418.69 275.77 421.67 230.02 C 424.25 193.73 417.06 156.77 400.80 124.21 C 383.09 88.37 354.68 57.98 320.24 37.71 C 289.72 19.65 254.49 9.69 219.03 9.00 C 180.54 8.09 141.84 18.10 108.71 37.74 Z" />
<path fill="#7b2382" opacity="1.00" d=" M 187.87 66.16 C 204.54 59.89 223.42 59.80 240.16 65.89 C 266.22 75.04 286.22 99.39 289.73 126.85 C 292.14 143.89 288.35 161.71 279.30 176.34 C 269.42 192.53 253.29 204.75 235.02 209.85 C 213.36 216.11 189.04 211.99 170.68 198.89 C 178.88 182.96 187.37 167.18 195.22 151.09 C 195.84 149.36 197.45 147.04 195.63 145.53 C 194.20 144.57 192.37 145.03 191.39 146.36 C 179.40 159.15 167.43 171.96 155.44 184.75 C 146.64 174.01 140.83 160.84 139.00 147.06 C 136.67 130.24 140.37 112.68 149.20 98.18 C 158.01 83.57 171.87 72.08 187.87 66.16 Z" />
</g>
<g id="#ffffffff">
<path fill="#ffffff" opacity="1.00" d=" M 108.71 37.74 C 141.84 18.10 180.54 8.09 219.03 9.00 C 254.49 9.69 289.72 19.65 320.24 37.71 C 354.68 57.98 383.09 88.37 400.80 124.21 C 417.06 156.77 424.25 193.73 421.67 230.02 C 418.69 275.77 399.53 320.07 368.76 353.99 C 361.80 321.61 344.01 291.75 319.13 269.92 C 296.22 249.66 267.31 236.30 237.02 232.07 C 208.95 228.08 179.81 231.64 153.63 242.58 C 127.84 253.27 105.00 270.98 88.19 293.28 C 74.66 311.19 64.98 332.04 60.24 354.00 C 36.82 328.03 19.89 296.17 12.10 262.04 C 2.22 219.49 6.27 173.81 23.75 133.76 C 40.99 93.85 71.25 59.77 108.71 37.74 M 187.87 66.16 C 171.87 72.08 158.01 83.57 149.20 98.18 C 140.37 112.68 136.67 130.24 139.00 147.06 C 140.83 160.84 146.64 174.01 155.44 184.75 C 167.43 171.96 179.40 159.15 191.39 146.36 C 192.37 145.03 194.20 144.57 195.63 145.53 C 197.45 147.04 195.84 149.36 195.22 151.09 C 187.37 167.18 178.88 182.96 170.68 198.89 C 189.04 211.99 213.36 216.11 235.02 209.85 C 253.29 204.75 269.42 192.53 279.30 176.34 C 288.35 161.71 292.14 143.89 289.73 126.85 C 286.22 99.39 266.22 75.04 240.16 65.89 C 223.42 59.80 204.54 59.89 187.87 66.16 Z" />
</g>
</svg>
