<?xml version="1.0" encoding="utf-8"?>
<!-- Generator: Adobe Illustrator 19.2.1, SVG Export Plug-In . SVG Version: 6.00 Build 0)  -->
<svg version="1.1" id="Layer_1" xmlns="http://www.w3.org/2000/svg" xmlns:xlink="http://www.w3.org/1999/xlink" x="0px" y="0px"
	 viewBox="0 0 10 22" style="enable-background:new 0 0 10 22;" xml:space="preserve">
<style type="text/css">
	.st0{fill:#7B2382;}
</style>
<g id="_x23_7b2382ff">
	<path class="st0" d="M4.8,0h0.3c0.8,0.1,1.6,0.5,2,1.3c0.4,0.7,0.4,1.5,0.1,2.2C7,4.2,6.3,4.8,5.6,4.9C4.9,5.1,4.2,5,3.7,4.6
		C3.8,4,4.1,3.4,4.3,2.9C3.9,3.2,3.4,3.6,2.9,3.9C2.4,3.1,2.3,2.1,2.8,1.3C3.2,0.5,4,0.1,4.8,0z"/>
	<path class="st0" d="M2.7,6c1-0.5,2.1-0.7,3.2-0.5c1.2,0.2,2.3,0.9,3,1.8c0.7,0.8,1,1.8,1.1,2.9v0.2C8.3,14.3,6.7,18.2,5,22l0,0h0
		c-1.7-3.8-3.3-7.7-5-11.5v-0.2c0-0.5,0.1-1,0.3-1.5C0.7,7.6,1.6,6.6,2.7,6z"/>
</g>
</svg>
