<?xml version="1.0" encoding="UTF-8" ?>
<!DOCTYPE svg PUBLIC "-//W3C//DTD SVG 1.1//EN" "http://www.w3.org/Graphics/SVG/1.1/DTD/svg11.dtd">
<svg width="162pt" height="836pt" viewBox="0 0 162 836" version="1.1" xmlns="http://www.w3.org/2000/svg">
<g id="#404041ff">
<path fill="#404041" opacity="1.00" d=" M 80.54 0.00 L 84.20 0.00 C 90.64 2.18 90.86 10.57 88.98 15.98 C 87.36 21.54 78.55 22.01 76.37 16.65 C 74.04 11.19 74.26 2.70 80.54 0.00 M 81.38 2.47 C 77.07 3.75 77.18 9.40 77.67 13.02 C 77.75 16.46 81.40 19.34 84.66 17.57 C 88.05 15.40 87.79 10.58 87.31 7.07 C 87.07 4.18 84.36 1.62 81.38 2.47 Z" />
<path fill="#404041" opacity="1.00" d=" M 99.64 0.00 L 100.97 0.00 C 100.28 3.86 98.58 7.43 96.98 10.97 C 93.26 19.54 89.61 28.14 85.88 36.70 C 85.18 36.70 83.79 36.70 83.09 36.70 C 86.83 27.94 90.65 19.21 94.40 10.45 C 95.95 6.88 97.20 3.10 99.64 0.00 Z" />
<path fill="#404041" opacity="1.00" d=" M 0.00 5.90 C 2.98 3.74 6.03 1.66 9.32 0.01 C 9.58 12.24 9.38 24.48 9.43 36.72 C 8.78 36.71 7.47 36.68 6.82 36.67 C 6.80 25.82 6.82 14.97 6.81 4.12 C 4.94 5.39 3.08 6.66 1.21 7.93 C 0.91 7.42 0.30 6.41 0.00 5.90 L 0.00 5.90 Z" />
<path fill="#404041" opacity="1.00" d=" M 25.28 1.26 C 30.68 -1.50 37.87 1.29 39.80 7.09 C 42.60 14.98 42.70 24.33 38.90 31.91 C 35.75 38.18 25.92 38.84 21.88 33.16 C 18.17 27.93 17.95 21.13 18.33 14.96 C 18.79 9.83 20.31 3.80 25.28 1.26 M 26.40 3.55 C 22.37 5.77 21.33 10.78 20.92 14.98 C 20.57 20.49 20.61 26.56 23.73 31.34 C 26.34 35.39 32.93 35.67 35.85 31.83 C 38.70 28.21 39.04 23.35 39.19 18.92 C 39.12 14.46 38.81 9.63 36.18 5.84 C 34.09 2.75 29.65 1.89 26.40 3.55 Z" />
<path fill="#404041" opacity="1.00" d=" M 53.36 1.31 C 58.73 -1.50 65.98 1.19 67.95 6.99 C 70.78 14.72 70.83 23.82 67.40 31.37 C 64.60 37.83 54.84 39.05 50.45 33.63 C 46.38 28.43 46.14 21.36 46.52 15.05 C 46.97 9.93 48.44 3.92 53.36 1.31 M 55.21 3.28 C 50.75 5.17 49.55 10.50 49.12 14.85 C 48.75 20.35 48.79 26.39 51.83 31.22 C 54.37 35.31 60.93 35.72 63.95 31.97 C 66.87 28.34 67.23 23.43 67.38 18.95 C 67.30 14.43 67.02 9.50 64.26 5.71 C 62.28 2.90 58.33 2.04 55.21 3.28 Z" />
<path fill="#404041" opacity="1.00" d=" M 138.34 19.59 C 135.89 19.26 136.57 15.00 139.09 15.45 C 145.95 15.28 152.83 15.37 159.68 15.34 C 160.00 15.54 160.64 15.93 160.95 16.12 C 161.50 19.39 161.11 22.71 161.19 26.01 C 161.20 208.34 161.17 390.67 161.20 573.00 C 161.09 654.33 161.37 735.67 161.06 817.00 C 153.69 817.30 146.30 817.28 138.93 817.08 C 136.13 817.39 136.14 812.58 138.91 812.89 C 144.89 812.65 150.89 812.89 156.87 812.81 C 156.87 787.69 156.88 762.56 156.87 737.44 C 150.91 737.34 144.95 737.61 138.99 737.35 C 136.60 737.72 135.95 733.84 138.15 733.24 C 144.37 732.77 150.63 733.20 156.87 733.06 C 156.88 707.93 156.88 682.81 156.87 657.69 C 150.72 657.55 144.55 657.96 138.41 657.52 C 136.28 657.42 136.24 653.60 138.38 653.48 C 144.52 653.03 150.71 653.45 156.87 653.31 C 156.88 628.19 156.88 603.06 156.87 577.94 C 150.90 577.85 144.92 578.11 138.95 577.86 C 136.13 578.20 136.12 573.25 138.98 573.65 C 144.94 573.38 150.91 573.65 156.87 573.56 C 156.88 548.44 156.87 523.31 156.87 498.19 C 150.87 498.10 144.87 498.35 138.87 498.11 C 136.13 498.35 136.14 493.57 138.95 493.92 C 144.91 493.61 150.90 493.91 156.87 493.81 C 156.88 468.71 156.87 443.61 156.87 418.50 C 150.75 418.36 144.59 418.78 138.48 418.33 C 135.99 418.17 136.43 413.80 138.94 414.17 C 144.91 413.86 150.90 414.16 156.87 414.06 C 156.88 388.96 156.88 363.85 156.87 338.75 C 150.70 338.60 144.50 339.06 138.34 338.56 C 136.24 338.38 136.30 334.62 138.41 334.52 C 144.55 334.12 150.72 334.50 156.87 334.37 C 156.88 309.25 156.87 284.13 156.88 259.00 C 150.92 258.91 144.96 259.17 139.01 258.92 C 136.17 259.31 136.06 254.35 138.95 254.71 C 144.92 254.45 150.90 254.71 156.87 254.63 C 156.88 229.50 156.87 204.38 156.87 179.25 C 150.89 179.16 144.91 179.42 138.94 179.16 C 136.14 179.51 136.14 174.71 138.88 174.96 C 144.87 174.70 150.88 174.96 156.87 174.87 C 156.88 149.75 156.87 124.63 156.87 99.50 C 150.73 99.36 144.57 99.76 138.44 99.35 C 136.33 99.25 136.21 95.63 138.27 95.31 C 144.45 94.82 150.67 95.27 156.87 95.12 C 156.88 70.00 156.88 44.88 156.87 19.76 C 150.70 19.61 144.50 20.03 138.34 19.59 Z" />
<path fill="#404041" opacity="1.00" d=" M 99.23 17.33 C 102.50 15.94 106.86 17.19 108.28 20.63 C 110.06 24.82 110.08 29.94 107.95 34.01 C 105.75 38.11 99.07 38.34 96.54 34.47 C 94.55 31.40 94.40 27.51 94.90 24.00 C 95.29 21.32 96.56 18.40 99.23 17.33 M 100.40 19.47 C 98.18 20.27 97.38 22.81 97.14 24.94 C 96.90 27.76 96.90 30.94 98.67 33.31 C 100.64 35.78 105.14 35.16 106.25 32.15 C 107.54 28.89 107.53 25.04 106.21 21.79 C 105.32 19.56 102.57 18.64 100.40 19.47 Z" />
<path fill="#404041" opacity="1.00" d=" M 24.20 82.20 C 29.61 77.78 38.85 80.32 40.85 87.14 C 43.99 97.78 38.53 109.53 29.81 115.86 C 28.46 116.82 26.69 116.48 25.15 116.73 C 31.43 112.17 36.75 106.07 38.90 98.48 C 35.36 101.95 29.73 103.51 25.27 100.79 C 18.55 97.20 18.07 86.60 24.20 82.20 M 27.30 83.26 C 22.86 85.25 21.05 91.28 23.56 95.43 C 25.46 99.06 30.23 100.69 33.96 99.00 C 38.29 97.34 40.25 91.80 38.34 87.67 C 36.69 83.50 31.38 81.22 27.30 83.26 Z" />
<path fill="#404041" opacity="1.00" d=" M 54.44 80.72 C 58.27 79.42 62.99 80.15 65.72 83.31 C 69.16 87.32 69.83 92.88 69.95 97.96 C 69.93 103.17 69.40 108.80 66.20 113.12 C 62.60 118.08 54.29 118.24 50.45 113.50 C 46.78 108.91 46.31 102.69 46.39 97.03 C 46.60 90.96 48.04 83.20 54.44 80.72 M 54.45 83.51 C 50.22 86.02 49.37 91.42 49.03 95.91 C 48.85 101.26 48.95 107.20 52.26 111.67 C 54.99 115.27 61.04 115.38 63.90 111.90 C 66.83 108.33 67.22 103.46 67.38 99.02 C 67.33 94.47 67.05 89.54 64.35 85.70 C 62.23 82.57 57.70 81.76 54.45 83.51 Z" />
<path fill="#404041" opacity="1.00" d=" M 79.39 80.50 C 82.58 79.00 87.00 80.02 88.55 83.37 C 90.46 87.46 90.48 92.51 88.63 96.62 C 86.76 101.01 79.92 101.62 77.16 97.82 C 75.11 94.98 74.87 91.26 75.19 87.88 C 75.51 85.03 76.62 81.82 79.39 80.50 M 81.35 82.36 C 76.75 83.90 77.10 90.12 77.91 93.99 C 78.34 97.86 83.89 99.42 86.12 96.18 C 88.05 92.94 87.95 88.74 86.81 85.25 C 86.10 83.01 83.59 81.76 81.35 82.36 Z" />
<path fill="#404041" opacity="1.00" d=" M 98.70 80.38 C 99.63 80.38 100.55 80.37 101.48 80.37 C 96.28 92.44 91.11 104.53 85.87 116.59 C 85.18 116.58 83.79 116.56 83.09 116.56 C 88.28 104.49 93.51 92.44 98.70 80.38 Z" />
<path fill="#404041" opacity="1.00" d=" M 99.21 97.21 C 102.52 95.80 106.91 97.09 108.31 100.58 C 110.10 104.95 110.14 110.40 107.56 114.47 C 104.59 118.79 96.88 117.59 95.54 112.42 C 94.02 107.43 93.91 99.99 99.21 97.21 M 100.27 99.40 C 96.30 101.64 96.68 107.27 97.59 111.12 C 98.22 114.61 103.06 115.98 105.40 113.34 C 107.72 110.25 107.48 105.89 106.50 102.34 C 105.81 99.72 102.73 98.34 100.27 99.40 Z" />
<path fill="#404041" opacity="1.00" d=" M 21.79 164.58 C 25.51 158.23 36.42 158.42 39.77 165.02 C 41.99 169.28 40.55 174.82 36.55 177.47 C 41.86 180.11 43.30 187.38 40.14 192.18 C 35.94 198.46 25.18 198.40 21.09 192.02 C 18.05 187.24 19.53 180.06 24.79 177.49 C 20.61 174.76 19.25 168.87 21.79 164.58 M 27.22 163.22 C 23.58 164.75 22.11 169.53 24.01 172.93 C 27.15 178.50 38.01 177.06 38.12 170.06 C 38.81 164.45 31.93 160.66 27.22 163.22 M 27.25 179.31 C 21.03 180.79 20.53 190.35 26.04 193.07 C 31.25 196.41 39.68 192.63 39.06 186.00 C 39.24 180.04 32.09 177.51 27.25 179.31 Z" />
<path fill="#404041" opacity="1.00" d=" M 54.41 160.62 C 58.26 159.28 63.04 160.03 65.76 163.24 C 69.20 167.29 69.84 172.88 69.95 177.99 C 69.92 183.19 69.36 188.81 66.12 193.10 C 62.37 198.14 53.77 198.05 50.10 192.95 C 46.59 188.11 46.24 181.79 46.43 176.01 C 46.74 170.22 48.33 162.94 54.41 160.62 M 54.36 163.44 C 49.86 166.26 49.22 172.18 48.97 177.01 C 48.94 182.00 49.16 187.54 52.35 191.66 C 55.09 195.13 61.00 195.22 63.85 191.84 C 66.82 188.29 67.20 183.41 67.38 178.98 C 67.34 174.43 67.06 169.50 64.39 165.63 C 62.26 162.45 57.63 161.59 54.36 163.44 Z" />
<path fill="#404041" opacity="1.00" d=" M 79.31 160.42 C 82.56 158.83 87.13 159.94 88.63 163.41 C 90.46 167.50 90.47 172.50 88.60 176.57 C 86.71 180.88 80.04 181.47 77.23 177.81 C 75.13 174.97 74.87 171.22 75.18 167.82 C 75.49 164.98 76.57 161.77 79.31 160.42 M 80.39 162.58 C 76.61 165.18 77.06 170.86 78.20 174.75 C 79.18 178.42 84.88 178.92 86.48 175.50 C 87.96 172.28 87.93 168.42 86.79 165.10 C 85.99 162.50 82.74 161.36 80.39 162.58 Z" />
<path fill="#404041" opacity="1.00" d=" M 98.69 160.28 C 99.39 160.26 100.78 160.24 101.48 160.23 C 96.21 172.19 91.39 184.38 85.81 196.18 C 85.13 196.32 83.76 196.58 83.08 196.71 C 88.10 184.49 93.53 172.44 98.69 160.28 Z" />
<path fill="#404041" opacity="1.00" d=" M 99.22 177.10 C 102.35 175.79 106.51 176.81 108.07 179.99 C 110.13 184.27 110.12 189.67 107.89 193.88 C 105.24 198.65 97.06 197.74 95.59 192.43 C 94.00 187.41 93.88 179.89 99.22 177.10 M 100.21 179.31 C 96.38 181.48 96.75 186.87 97.47 190.61 C 97.95 193.87 101.91 195.76 104.68 193.88 C 107.71 191.26 107.42 186.64 106.76 183.06 C 106.35 180.06 103.05 177.99 100.21 179.31 Z" />
<path fill="#404041" opacity="1.00" d=" M 21.06 240.12 C 28.15 240.12 35.24 240.12 42.33 240.13 C 42.32 240.76 42.28 242.03 42.27 242.67 C 34.00 251.76 30.07 264.14 30.38 276.32 C 29.64 276.32 28.17 276.30 27.43 276.30 C 27.22 264.16 31.24 252.11 39.01 242.75 C 33.89 242.76 28.77 242.75 23.64 242.76 C 23.64 243.51 23.62 245.01 23.61 245.76 C 22.97 245.76 21.71 245.76 21.07 245.76 C 21.07 243.88 21.06 242.00 21.06 240.12 Z" />
<path fill="#404041" opacity="1.00" d=" M 54.37 240.51 C 58.50 239.03 63.69 240.08 66.30 243.78 C 69.46 248.15 69.96 253.79 69.94 259.02 C 69.80 263.87 69.13 269.08 66.07 273.04 C 62.30 278.01 53.75 277.91 50.10 272.83 C 46.44 267.75 46.17 261.09 46.49 255.06 C 46.88 249.52 48.61 242.72 54.37 240.51 M 54.34 243.34 C 51.34 245.10 50.06 248.63 49.48 251.88 C 48.61 258.04 48.45 264.85 51.56 270.45 C 53.76 274.54 59.88 275.47 63.26 272.33 C 66.54 269.15 67.07 264.27 67.34 259.96 C 67.42 255.07 67.23 249.76 64.43 245.56 C 62.31 242.34 57.64 241.46 54.34 243.34 Z" />
<path fill="#404041" opacity="1.00" d=" M 79.31 240.30 C 82.59 238.69 87.21 239.84 88.67 243.38 C 90.52 247.68 90.51 252.98 88.23 257.12 C 85.54 261.66 77.68 260.84 76.11 255.72 C 74.36 250.72 74.29 243.42 79.31 240.30 M 80.33 242.50 C 76.59 245.16 77.05 250.87 78.26 254.77 C 79.32 258.28 84.82 258.76 86.43 255.46 C 87.97 252.28 87.93 248.42 86.84 245.10 C 86.08 242.41 82.73 241.19 80.33 242.50 Z" />
<path fill="#404041" opacity="1.00" d=" M 98.70 240.15 C 99.39 240.14 100.79 240.11 101.49 240.10 C 96.21 252.09 91.38 264.30 85.78 276.12 C 85.09 276.25 83.73 276.51 83.05 276.64 C 88.09 264.40 93.53 252.34 98.70 240.15 Z" />
<path fill="#404041" opacity="1.00" d=" M 98.41 257.39 C 101.61 255.48 106.45 256.43 108.11 259.95 C 110.10 264.22 110.13 269.59 107.87 273.77 C 105.22 278.51 97.08 277.62 95.60 272.34 C 94.06 267.49 93.91 260.72 98.41 257.39 M 100.15 259.21 C 96.74 261.09 96.87 265.72 97.19 269.08 C 97.33 272.04 99.73 275.20 103.01 274.40 C 107.46 273.34 107.45 267.61 106.98 263.99 C 106.88 260.62 103.50 257.60 100.15 259.21 Z" />
<path fill="#404041" opacity="1.00" d=" M 20.06 336.94 C 21.62 330.00 26.26 324.19 31.86 319.98 C 32.87 319.98 34.88 319.97 35.89 319.97 C 29.45 324.28 24.24 330.47 22.02 337.99 C 24.95 335.24 28.79 332.85 32.98 333.95 C 40.83 335.18 44.25 345.59 39.87 351.81 C 36.10 357.66 26.57 358.18 22.20 352.77 C 18.52 348.40 18.87 342.18 20.06 336.94 M 28.35 336.64 C 23.56 337.98 20.45 343.79 22.55 348.44 C 24.28 352.93 29.97 355.38 34.36 353.24 C 39.01 351.23 40.46 345.01 38.11 340.76 C 36.43 337.22 32.05 335.45 28.35 336.64 Z" />
<path fill="#404041" opacity="1.00" d=" M 54.33 320.41 C 58.24 319.01 63.14 319.80 65.87 323.12 C 69.26 327.24 69.87 332.86 69.95 338.01 C 69.90 343.20 69.30 348.84 65.96 353.06 C 62.00 358.10 53.14 357.67 49.73 352.21 C 46.14 346.61 46.07 339.55 46.66 333.15 C 47.25 328.17 49.20 322.34 54.33 320.41 M 56.37 322.44 C 51.69 323.46 49.84 328.61 49.31 332.84 C 48.67 338.73 48.58 345.20 51.66 350.48 C 54.02 354.68 60.55 355.34 63.73 351.74 C 66.78 348.26 67.18 343.36 67.38 338.94 C 67.36 334.36 67.09 329.43 64.48 325.51 C 62.77 322.88 59.37 321.74 56.37 322.44 Z" />
<path fill="#404041" opacity="1.00" d=" M 79.27 320.20 C 82.57 318.55 87.23 319.74 88.70 323.32 C 90.53 327.62 90.51 332.94 88.19 337.06 C 85.49 341.49 77.79 340.72 76.16 335.73 C 74.34 330.72 74.26 323.38 79.27 320.20 M 80.30 322.39 C 76.74 324.89 77.14 330.18 78.00 333.94 C 78.61 337.54 83.69 338.89 85.96 336.04 C 88.07 332.87 87.94 328.61 86.88 325.09 C 86.15 322.34 82.75 321.04 80.30 322.39 Z" />
<path fill="#404041" opacity="1.00" d=" M 98.82 320.26 C 99.49 320.13 100.85 319.86 101.53 319.73 C 96.33 331.84 91.40 344.10 85.77 355.99 C 85.09 356.12 83.73 356.38 83.05 356.51 C 88.22 344.39 93.22 332.17 98.82 320.26 Z" />
<path fill="#404041" opacity="1.00" d=" M 100.40 336.49 C 103.38 335.78 106.85 337.03 108.16 339.92 C 110.04 344.00 110.05 348.99 108.20 353.08 C 106.28 357.47 99.45 358.03 96.69 354.22 C 94.45 350.97 94.36 346.71 95.00 342.95 C 95.48 340.06 97.31 337.04 100.40 336.49 M 99.41 339.53 C 96.33 342.47 96.64 347.54 97.79 351.32 C 98.81 354.92 104.41 355.47 106.05 352.08 C 107.58 348.84 107.52 344.89 106.33 341.55 C 105.39 338.81 101.69 337.85 99.41 339.53 Z" />
<path fill="#404041" opacity="1.00" d=" M 80.49 399.62 C 83.65 398.71 87.48 400.09 88.74 403.28 C 90.53 407.62 90.52 413.01 88.08 417.10 C 85.12 421.60 77.19 420.33 75.92 415.01 C 74.30 409.87 74.44 401.71 80.49 399.62 M 80.30 402.27 C 77.18 404.27 77.29 408.63 77.58 411.91 C 77.72 414.73 79.76 417.93 82.96 417.44 C 87.77 416.85 87.91 410.74 87.40 407.03 C 87.40 403.49 83.68 400.39 80.30 402.27 Z" />
<path fill="#404041" opacity="1.00" d=" M 21.19 399.88 C 27.26 399.87 33.34 399.88 39.42 399.87 C 39.43 400.70 39.44 401.54 39.44 402.37 C 34.17 402.38 28.90 402.37 23.63 402.38 C 23.63 406.22 23.64 410.06 23.58 413.90 C 28.41 410.92 35.60 410.93 39.27 415.72 C 43.15 421.19 42.73 430.02 37.27 434.32 C 31.64 438.53 22.58 436.42 19.93 429.70 C 20.53 429.48 21.72 429.03 22.31 428.81 C 24.63 433.95 31.77 435.65 36.05 431.94 C 39.54 428.72 39.85 423.11 38.07 418.93 C 36.46 415.04 31.58 413.38 27.75 414.78 C 25.56 415.62 23.49 416.75 21.24 417.44 C 21.13 411.58 21.20 405.73 21.19 399.88 Z" />
<path fill="#404041" opacity="1.00" d=" M 54.25 400.33 C 58.20 398.87 63.18 399.68 65.91 403.06 C 69.28 407.21 69.88 412.83 69.95 417.99 C 69.88 423.15 69.29 428.76 65.96 432.94 C 62.01 437.96 53.19 437.56 49.76 432.14 C 46.17 426.59 46.08 419.57 46.64 413.20 C 47.22 408.19 49.12 402.31 54.25 400.33 M 55.43 402.60 C 51.29 404.14 49.81 408.87 49.29 412.86 C 48.67 418.71 48.61 425.12 51.65 430.36 C 54.01 434.53 60.47 435.23 63.68 431.68 C 66.72 428.25 67.17 423.39 67.37 419.02 C 67.38 414.38 67.11 409.39 64.49 405.41 C 62.59 402.48 58.64 401.42 55.43 402.60 Z" />
<path fill="#404041" opacity="1.00" d=" M 83.07 436.12 C 88.39 424.16 93.20 411.94 98.82 400.15 C 99.50 400.02 100.85 399.74 101.52 399.61 C 96.45 411.84 91.09 423.95 85.88 436.13 C 85.18 436.13 83.77 436.12 83.07 436.12 Z" />
<path fill="#404041" opacity="1.00" d=" M 99.42 416.66 C 102.62 415.43 106.78 416.60 108.21 419.90 C 110.15 424.39 110.22 430.18 107.33 434.29 C 104.08 438.42 96.55 436.82 95.42 431.60 C 94.04 426.63 94.01 419.20 99.42 416.66 M 99.38 419.43 C 96.31 422.43 96.63 427.54 97.85 431.33 C 98.93 434.81 104.33 435.29 105.99 432.06 C 107.59 428.81 107.52 424.82 106.33 421.45 C 105.38 418.70 101.67 417.71 99.38 419.43 Z" />
<path fill="#404041" opacity="1.00" d=" M 80.38 479.54 C 83.62 478.53 87.58 479.99 88.80 483.30 C 90.51 487.66 90.52 493.03 88.01 497.09 C 84.99 501.49 77.14 500.17 75.91 494.87 C 74.31 489.74 74.44 481.70 80.38 479.54 M 80.27 482.17 C 76.72 484.75 77.11 490.10 78.07 493.90 C 78.71 496.78 82.22 498.24 84.77 496.81 C 88.13 494.46 87.82 489.58 87.23 486.00 C 86.91 482.74 83.22 480.49 80.27 482.17 Z" />
<path fill="#404041" opacity="1.00" d=" M 24.91 493.99 C 28.01 489.39 30.52 484.35 33.96 480.00 C 34.69 479.88 36.14 479.63 36.87 479.51 C 32.00 487.75 26.77 495.77 21.77 503.93 C 26.41 503.94 31.05 503.94 35.69 503.93 C 35.70 498.70 35.63 493.47 35.75 488.24 C 36.33 488.51 37.51 489.05 38.10 489.33 C 38.50 494.18 38.14 499.06 38.24 503.92 C 39.12 503.93 40.87 503.94 41.75 503.95 C 41.75 504.58 41.75 505.86 41.75 506.49 C 40.88 506.50 39.13 506.50 38.25 506.51 C 38.25 509.67 38.25 512.83 38.25 516.00 C 37.61 516.00 36.33 516.00 35.69 516.00 C 35.69 512.83 35.69 509.66 35.68 506.50 C 29.90 506.48 24.12 506.55 18.34 506.45 C 19.17 501.68 22.61 498.08 24.91 493.99 Z" />
<path fill="#404041" opacity="1.00" d=" M 54.26 480.20 C 58.24 478.73 63.24 479.59 65.97 483.01 C 69.31 487.20 69.90 492.83 69.95 498.01 C 69.86 503.14 69.26 508.73 65.91 512.88 C 61.98 517.80 53.31 517.43 49.85 512.14 C 46.18 506.60 46.06 499.51 46.65 493.11 C 47.20 488.09 49.12 482.20 54.26 480.20 M 55.33 482.51 C 51.22 484.13 49.79 488.87 49.27 492.86 C 48.68 498.70 48.63 505.11 51.70 510.32 C 54.09 514.42 60.46 515.07 63.65 511.59 C 66.72 508.19 67.15 503.33 67.37 498.97 C 67.38 494.35 67.13 489.39 64.57 485.40 C 62.67 482.37 58.61 481.25 55.33 482.51 Z" />
<path fill="#404041" opacity="1.00" d=" M 83.08 516.00 C 88.40 504.04 93.19 491.81 98.84 480.03 C 99.51 479.89 100.85 479.61 101.52 479.48 C 96.47 491.72 91.08 503.82 85.89 516.00 C 85.19 516.00 83.78 516.00 83.08 516.00 Z" />
<path fill="#404041" opacity="1.00" d=" M 99.42 496.54 C 102.61 495.31 106.75 496.48 108.20 499.75 C 110.11 504.08 110.14 509.51 107.72 513.66 C 104.81 518.32 96.69 517.01 95.46 511.61 C 94.02 506.61 93.96 499.09 99.42 496.54 M 99.35 499.33 C 96.32 502.36 96.62 507.43 97.85 511.23 C 98.93 514.66 104.26 515.17 105.95 512.01 C 107.60 508.78 107.51 504.80 106.38 501.43 C 105.47 498.60 101.67 497.55 99.35 499.33 Z" />
<path fill="#404041" opacity="1.00" d=" M 25.01 560.82 C 29.55 558.02 36.40 558.97 39.37 563.61 C 42.13 567.87 41.02 574.13 36.60 576.84 C 41.94 579.67 43.35 587.14 39.96 591.97 C 36.73 596.54 29.94 597.34 25.17 594.87 C 22.75 593.68 21.54 591.16 20.34 588.90 C 23.44 587.60 24.30 591.30 26.46 592.57 C 30.03 594.56 35.17 593.88 37.63 590.47 C 39.76 587.43 39.63 582.73 36.82 580.17 C 35.04 578.53 32.48 578.39 30.25 577.86 C 30.25 577.41 30.26 576.53 30.26 576.08 C 33.36 575.59 37.37 574.62 38.04 570.98 C 39.90 565.31 33.42 560.02 28.11 562.10 C 24.96 562.56 24.13 567.68 20.57 565.99 C 21.81 564.08 23.00 562.01 25.01 560.82 Z" />
<path fill="#404041" opacity="1.00" d=" M 80.35 559.43 C 83.60 558.40 87.57 559.86 88.80 563.19 C 90.46 567.36 90.47 572.41 88.35 576.44 C 86.18 580.46 79.63 580.71 77.06 576.99 C 74.93 573.81 74.78 569.72 75.35 566.06 C 75.83 563.25 77.39 560.20 80.35 559.43 M 79.51 562.59 C 76.85 565.62 77.11 570.26 78.11 573.92 C 78.92 577.53 84.34 578.44 86.25 575.28 C 88.05 571.97 87.97 567.77 86.71 564.29 C 85.69 561.45 81.69 560.61 79.51 562.59 Z" />
<path fill="#404041" opacity="1.00" d=" M 53.39 560.47 C 57.49 558.48 63.07 559.22 65.99 562.92 C 69.13 566.84 69.80 572.09 69.95 576.96 C 69.95 582.43 69.43 588.44 65.84 592.85 C 61.86 597.70 53.25 597.28 49.82 591.99 C 46.38 586.78 46.14 580.19 46.52 574.16 C 46.98 569.05 48.47 563.06 53.39 560.47 M 55.27 562.42 C 50.46 564.46 49.40 570.32 49.05 574.96 C 48.83 580.31 48.91 586.26 52.14 590.81 C 54.87 594.61 61.21 594.72 64.05 591.01 C 66.91 587.34 67.25 582.44 67.38 577.98 C 67.29 573.46 66.99 568.54 64.20 564.79 C 62.21 562.06 58.35 561.23 55.27 562.42 Z" />
<path fill="#404041" opacity="1.00" d=" M 83.08 595.87 C 88.39 583.91 93.19 571.69 98.84 559.90 C 99.51 559.76 100.84 559.48 101.51 559.34 C 96.48 571.60 91.08 583.70 85.88 595.89 C 85.18 595.88 83.78 595.88 83.08 595.87 Z" />
<path fill="#404041" opacity="1.00" d=" M 99.41 576.43 C 102.63 575.17 106.81 576.40 108.24 579.71 C 110.05 583.86 110.07 588.92 108.05 593.00 C 105.93 597.30 98.99 597.57 96.46 593.55 C 94.52 590.40 94.37 586.44 94.95 582.88 C 95.37 580.23 96.74 577.40 99.41 576.43 M 100.50 578.61 C 98.31 579.33 97.43 581.79 97.17 583.88 C 96.90 586.72 96.86 589.91 98.57 592.35 C 100.46 594.95 105.08 594.40 106.23 591.37 C 107.51 588.24 107.48 584.60 106.42 581.42 C 105.66 579.00 102.85 577.73 100.50 578.61 Z" />
<path fill="#404041" opacity="1.00" d=" M 19.22 645.53 C 22.14 639.61 29.82 637.40 35.56 640.50 C 40.88 643.11 41.67 650.81 38.24 655.23 C 35.48 658.54 31.41 660.36 28.38 663.39 C 25.48 666.07 23.45 669.53 21.82 673.10 C 28.30 673.15 34.78 673.10 41.26 673.13 C 41.25 673.78 41.25 675.10 41.25 675.75 C 33.76 675.73 26.27 675.79 18.77 675.72 C 19.92 667.83 25.57 661.30 32.10 657.11 C 35.22 655.17 38.16 652.00 37.60 648.02 C 37.23 642.14 29.39 640.07 24.98 642.92 C 23.08 644.13 21.85 647.51 19.22 645.53 Z" />
<path fill="#404041" opacity="1.00" d=" M 55.43 639.60 C 59.24 638.67 63.69 639.73 66.12 642.96 C 69.38 647.21 69.91 652.82 69.95 658.00 C 69.84 663.12 69.19 668.70 65.79 672.78 C 61.85 677.51 53.45 677.16 49.96 672.06 C 46.04 666.24 45.99 658.73 46.76 652.01 C 47.39 646.88 49.89 640.90 55.43 639.60 M 55.25 642.31 C 51.12 644.00 49.74 648.80 49.24 652.85 C 48.69 658.65 48.64 665.05 51.78 670.19 C 54.28 674.35 60.92 674.81 63.95 671.01 C 66.87 667.39 67.23 662.49 67.38 658.03 C 67.30 653.49 67.02 648.54 64.25 644.74 C 62.28 641.95 58.36 641.10 55.25 642.31 Z" />
<path fill="#404041" opacity="1.00" d=" M 80.27 639.33 C 83.34 638.36 87.18 639.51 88.57 642.59 C 90.44 646.62 90.45 651.54 88.72 655.63 C 86.93 660.19 79.88 660.85 77.10 656.92 C 74.96 653.77 74.79 649.72 75.33 646.08 C 75.79 643.25 77.30 640.16 80.27 639.33 M 81.41 641.53 C 76.78 643.01 77.09 649.25 77.90 653.12 C 78.32 656.75 83.24 658.50 85.75 655.80 C 88.08 652.79 87.90 648.52 87.02 645.01 C 86.47 642.53 83.88 640.84 81.41 641.53 Z" />
<path fill="#404041" opacity="1.00" d=" M 83.08 675.74 C 88.40 663.81 93.18 651.61 98.81 639.84 C 99.48 639.70 100.82 639.42 101.49 639.28 C 96.46 651.51 91.08 663.60 85.87 675.77 C 85.18 675.76 83.78 675.75 83.08 675.74 Z" />
<path fill="#404041" opacity="1.00" d=" M 99.26 656.37 C 102.51 655.01 106.82 656.23 108.25 659.63 C 110.06 663.81 110.07 668.93 107.97 673.02 C 105.79 677.18 99.02 677.41 96.50 673.48 C 94.54 670.38 94.39 666.47 94.91 662.94 C 95.32 660.29 96.61 657.42 99.26 656.37 M 100.43 658.52 C 98.22 659.29 97.39 661.81 97.15 663.93 C 96.89 666.77 96.90 669.95 98.67 672.36 C 100.61 674.82 105.10 674.22 106.23 671.25 C 107.55 667.96 107.55 664.06 106.19 660.79 C 105.27 658.60 102.57 657.71 100.43 658.52 Z" />
<path fill="#404041" opacity="1.00" d=" M 55.44 719.48 C 59.25 718.55 63.71 719.61 66.13 722.86 C 69.40 727.14 69.93 732.80 69.95 738.02 C 69.82 743.11 69.16 748.66 65.75 752.70 C 61.64 757.59 52.83 756.94 49.58 751.39 C 46.09 745.64 46.01 738.50 46.75 732.01 C 47.36 726.84 49.84 720.79 55.44 719.48 M 55.17 722.22 C 50.98 724.01 49.70 728.92 49.19 733.03 C 48.72 738.76 48.68 745.07 51.81 750.13 C 54.33 754.22 60.88 754.67 63.91 750.94 C 66.86 747.34 67.22 742.43 67.38 737.97 C 67.31 733.44 67.03 728.54 64.33 724.72 C 62.35 721.85 58.33 720.94 55.17 722.22 Z" />
<path fill="#404041" opacity="1.00" d=" M 80.20 719.23 C 83.27 718.24 87.13 719.35 88.55 722.43 C 90.45 726.50 90.48 731.51 88.66 735.62 C 86.82 740.06 79.95 740.69 77.16 736.89 C 74.94 733.74 74.78 729.61 75.33 725.94 C 75.78 723.13 77.28 720.08 80.20 719.23 M 81.42 721.40 C 77.08 722.66 77.17 728.33 77.67 731.98 C 77.76 735.41 81.40 738.26 84.65 736.51 C 87.97 734.42 87.75 729.78 87.38 726.37 C 87.19 723.39 84.58 720.51 81.42 721.40 Z" />
<path fill="#404041" opacity="1.00" d=" M 98.71 719.44 C 99.63 719.43 100.55 719.43 101.48 719.44 C 96.28 731.51 91.11 743.59 85.88 755.64 C 85.18 755.64 83.78 755.63 83.09 755.63 C 88.28 743.56 93.51 731.50 98.71 719.44 Z" />
<path fill="#404041" opacity="1.00" d=" M 28.18 724.87 C 31.16 722.71 34.18 720.58 37.47 718.91 C 37.83 731.14 37.53 743.38 37.63 755.62 C 36.97 755.63 35.67 755.64 35.02 755.65 C 34.98 744.79 35.00 733.93 35.00 723.07 C 33.14 724.29 31.31 725.56 29.43 726.77 C 29.12 726.29 28.49 725.34 28.18 724.87 Z" />
<path fill="#404041" opacity="1.00" d=" M 99.23 736.27 C 102.31 734.99 106.43 735.93 108.01 739.06 C 110.13 743.32 110.13 748.74 107.93 752.98 C 105.71 757.05 99.04 757.26 96.53 753.40 C 94.56 750.35 94.41 746.48 94.89 742.99 C 95.28 740.29 96.54 737.34 99.23 736.27 M 100.36 738.42 C 98.11 739.26 97.36 741.86 97.12 744.03 C 96.93 746.80 96.92 749.93 98.69 752.27 C 100.67 754.72 105.17 754.07 106.26 751.06 C 107.54 747.81 107.51 743.98 106.22 740.74 C 105.33 738.49 102.54 737.54 100.36 738.42 Z" />
<path fill="#404041" opacity="1.00" d=" M 54.46 799.66 C 58.52 798.24 63.58 799.24 66.20 802.83 C 69.44 807.14 69.94 812.81 69.95 818.04 C 69.81 823.12 69.12 828.69 65.66 832.69 C 61.54 837.44 52.90 836.79 49.64 831.36 C 46.10 825.65 46.02 818.51 46.73 812.04 C 47.33 807.13 49.40 801.47 54.46 799.66 M 54.42 802.46 C 50.18 804.99 49.36 810.44 49.02 814.95 C 48.85 820.29 48.96 826.24 52.32 830.69 C 55.21 834.40 61.64 834.24 64.30 830.35 C 67.02 826.50 67.31 821.56 67.38 817.01 C 67.24 812.75 66.88 808.17 64.33 804.59 C 62.19 801.50 57.66 800.68 54.42 802.46 Z" />
<path fill="#404041" opacity="1.00" d=" M 79.40 799.43 C 82.61 797.92 87.05 798.98 88.59 802.37 C 90.46 806.46 90.48 811.48 88.62 815.59 C 86.73 819.95 79.93 820.55 77.17 816.77 C 75.11 813.93 74.87 810.20 75.19 806.83 C 75.50 803.97 76.62 800.75 79.40 799.43 M 80.44 801.62 C 76.61 804.15 77.07 809.87 78.18 813.76 C 79.08 817.16 84.17 818.00 86.12 815.11 C 88.06 811.87 87.94 807.66 86.80 804.17 C 86.01 801.58 82.79 800.42 80.44 801.62 Z" />
<path fill="#404041" opacity="1.00" d=" M 98.69 799.35 C 99.62 799.31 100.56 799.28 101.50 799.26 C 96.22 811.23 91.39 823.43 85.81 835.25 C 85.12 835.38 83.76 835.64 83.08 835.77 C 88.10 823.55 93.53 811.51 98.69 799.35 Z" />
<path fill="#404041" opacity="1.00" d=" M 95.81 819.65 C 97.74 814.30 106.39 814.29 108.35 819.61 C 110.52 825.03 110.27 833.19 104.22 836.00 L 100.52 836.00 C 93.85 833.89 93.71 825.09 95.81 819.65 M 100.28 818.33 C 98.11 819.22 97.35 821.74 97.13 823.88 C 96.91 826.71 96.93 829.93 98.79 832.27 C 100.79 834.53 105.04 833.94 106.19 831.08 C 107.57 827.80 107.52 823.89 106.22 820.61 C 105.31 818.34 102.46 817.42 100.28 818.33 Z" />
</g>
</svg>
