<?xml version="1.0" encoding="UTF-8" ?>
<!DOCTYPE svg PUBLIC "-//W3C//DTD SVG 1.1//EN" "http://www.w3.org/Graphics/SVG/1.1/DTD/svg11.dtd">
<svg width="208pt" height="164pt" viewBox="0 0 208 164" version="1.1" xmlns="http://www.w3.org/2000/svg">
<g id="#7b2382ff">
<path fill="#7b2382" opacity="1.00" d=" M 91.50 0.00 L 116.86 0.00 C 135.92 1.06 155.31 2.90 173.23 9.93 C 184.13 14.25 194.65 20.85 201.13 30.87 C 205.14 36.80 207.16 43.83 208.00 50.88 L 208.00 76.69 C 206.95 79.34 204.05 80.74 201.33 79.77 C 186.18 75.73 171.10 71.40 155.95 67.34 C 153.71 66.94 151.46 65.40 151.34 62.94 C 150.23 54.71 149.49 46.43 148.38 38.20 C 148.18 34.79 144.45 33.56 141.80 32.42 C 129.68 28.31 116.70 27.83 104.01 27.50 C 91.31 27.82 78.33 28.32 66.19 32.42 C 63.56 33.56 59.86 34.77 59.61 38.13 C 58.43 46.65 57.77 55.24 56.49 63.74 C 56.12 65.79 54.09 66.86 52.23 67.30 C 37.43 71.35 22.65 75.49 7.87 79.58 C 4.89 80.70 1.24 79.92 0.00 76.73 L 0.00 51.06 C 0.80 43.68 3.01 36.34 7.31 30.22 C 13.95 20.34 24.53 13.91 35.44 9.67 C 53.29 2.82 72.56 1.01 91.50 0.00 Z" />
<path fill="#7b2382" opacity="1.00" d=" M 68.77 47.42 C 69.44 42.59 74.14 38.97 78.95 39.24 C 95.64 39.25 112.33 39.26 129.02 39.24 C 133.66 38.98 138.34 42.37 139.06 47.05 C 140.29 54.90 141.38 62.78 142.48 70.66 C 156.91 79.59 171.48 88.29 185.95 97.13 C 189.45 99.06 191.47 103.02 191.26 106.97 C 191.21 122.65 191.30 138.33 191.22 154.00 C 191.29 158.77 187.66 162.93 183.10 164.00 L 25.07 164.00 C 20.44 163.05 16.66 158.83 16.78 154.01 C 16.69 138.68 16.80 123.35 16.73 108.02 C 16.67 104.77 17.30 101.19 19.81 98.90 C 22.39 96.65 25.52 95.19 28.38 93.36 C 40.74 85.77 53.20 78.33 65.51 70.65 C 66.59 62.91 67.57 55.15 68.77 47.42 M 97.52 68.73 C 87.71 70.32 78.59 75.68 72.36 83.41 C 64.57 92.95 61.30 106.07 63.89 118.13 C 67.23 136.08 83.68 150.61 102.00 151.24 C 114.90 151.99 127.89 145.97 135.85 135.82 C 143.12 126.79 146.37 114.59 144.43 103.14 C 142.81 92.90 137.26 83.29 129.04 76.92 C 120.28 69.97 108.57 66.85 97.52 68.73 Z" />
<path fill="#7b2382" opacity="1.00" d=" M 99.14 83.18 C 114.04 79.91 129.58 91.99 130.52 107.10 C 132.35 121.52 120.64 135.90 106.08 136.69 C 91.49 138.26 77.61 125.62 77.47 111.03 C 76.46 98.04 86.28 85.33 99.14 83.18 Z" />
</g>
</svg>
