<?xml version="1.0" encoding="UTF-8" ?>
<!DOCTYPE svg PUBLIC "-//W3C//DTD SVG 1.1//EN" "http://www.w3.org/Graphics/SVG/1.1/DTD/svg11.dtd">
<svg width="180pt" height="180pt" viewBox="0 0 180 180" version="1.1" xmlns="http://www.w3.org/2000/svg">
<g id="#b2b2b2ff">
<path fill="#b2b2b2" opacity="1.00" d=" M 33.58 0.00 L 41.11 0.00 C 49.20 0.93 57.09 4.29 62.92 10.04 C 71.94 19.07 80.96 28.11 90.00 37.12 C 98.86 28.28 107.71 19.42 116.56 10.57 C 122.65 4.41 131.04 0.77 139.63 0.00 L 146.06 0.00 C 153.04 0.70 159.83 3.26 165.42 7.50 C 173.63 13.67 178.96 23.38 180.00 33.57 L 180.00 41.09 C 179.12 49.72 175.15 57.90 169.05 64.04 C 160.46 72.74 151.76 81.33 143.14 90.00 C 152.05 99.04 161.21 107.82 169.94 117.04 C 175.67 122.89 179.11 130.78 180.00 138.89 L 180.00 146.47 C 178.88 157.60 172.56 168.13 163.08 174.13 C 158.00 177.43 152.11 179.36 146.10 180.00 L 139.59 180.00 C 132.44 179.33 125.43 176.75 119.77 172.29 C 113.12 166.43 107.16 159.81 100.78 153.65 C 109.09 139.04 117.36 124.40 125.69 109.80 C 126.27 108.67 126.78 107.52 127.21 106.33 C 124.22 108.61 121.75 111.46 119.07 114.07 C 104.20 128.87 89.45 143.80 74.51 158.54 C 68.10 164.06 63.07 171.27 55.57 175.44 C 51.14 177.94 46.18 179.35 41.16 180.00 L 33.54 180.00 C 16.25 178.57 1.41 163.72 0.00 146.43 L 0.00 138.88 C 0.92 130.80 4.31 122.91 10.05 117.08 C 15.67 111.46 21.29 105.85 26.90 100.23 C 40.70 108.06 54.49 115.90 68.27 123.76 C 69.48 124.43 70.78 124.92 72.08 125.37 C 71.14 124.19 70.17 123.03 69.11 121.96 C 49.39 102.30 29.74 82.58 10.03 62.91 C 4.31 57.08 0.93 49.22 0.00 41.15 L 0.00 33.53 C 1.44 16.23 16.29 1.41 33.58 0.00 Z" />
</g>
</svg>
